<svg width="25" height="20" viewBox="0 0 25 20" fill="none" xmlns="http://www.w3.org/2000/svg">
<path d="M17.9967 14.1254L18.3057 14.3978C18.3057 14.3978 18.5779 14.1593 18.7379 14.2618C18.8978 14.3639 21.7448 14.2388 21.7448 14.2388C21.7448 14.2388 22.3343 14.3558 22.4354 13.8205C22.5365 13.2853 22.7966 9.55849 20.0433 10.3011C17.29 11.0437 17.9376 13.3605 17.9967 14.1254Z" fill="black"/>
<path d="M2.9624 13.9625L3.51699 14.5917C3.51699 14.5917 3.92255 14.3635 4.02365 14.4136C4.12474 14.4638 6.99689 14.7757 6.99689 14.7757C6.99689 14.7757 7.7634 14.8824 7.98244 14.5913C8.20147 14.3006 7.03913 9.46021 5.37987 9.9368C3.7206 10.4134 2.96264 13.9621 2.96264 13.9621L2.9624 13.9625Z" fill="black"/>
<path d="M1.67724 11.0201L1.55811 10.4979C1.55811 10.4979 2.22281 8.66437 3.444 8.87068C4.66543 9.077 1.677 11.0201 1.677 11.0201H1.67724Z" fill="url(#paint0_linear_502_42512)"/>
<path d="M21.8101 3.97021L23.1898 8.49969H23.8267C23.6722 7.37695 23.2061 5.54198 21.8101 3.97021Z" fill="#CEC2DA"/>
<path d="M23.1899 8.49951L23.4932 9.49506L23.7441 9.55583C23.7441 9.55583 23.8506 9.55902 23.8675 9.53499C23.8931 9.4986 23.9144 9.13648 23.8269 8.49951H23.1899Z" fill="#CEC2DA"/>
<path d="M5.26074 8.0385L5.38343 7.70959C5.38343 7.70959 9.45186 3.71253 11.1054 3.78566C11.9246 3.82189 10.4281 4.10405 8.83509 5.30692C6.88916 7.37363 5.4837 8.67222 5.26074 8.03886V8.0385Z" fill="#4F6C7F"/>
<path fill-rule="evenodd" clip-rule="evenodd" d="M23.9 11.4081C23.876 12.0206 23.9142 12.2754 23.9142 12.2754L23.9138 12.2757C23.9138 12.2757 24.1041 13.2815 23.7199 13.5861C23.3357 13.8906 22.1966 14.1676 22.1966 14.1676C22.1966 14.1676 22.5825 10.7994 20.3757 10.8269C18.846 10.8463 18.4424 12.5548 18.3387 13.6012L7.40061 13.674C7.35196 12.9664 7.02376 10.7439 5.45539 10.7439C3.71971 10.7439 3.32008 12.5901 3.51681 14.5922C3.51681 14.5922 1.26522 14.5862 1.14847 13.5426C1.14847 13.5426 1.12853 13.326 1.22773 13.1621V12.6633C1.22773 12.6633 1.15582 12.5534 1.10077 12.3725C1.50324 12.3704 2.84807 12.3619 3.08871 12.3347C3.37229 12.3026 3.52275 11.8613 3.54434 11.714C3.56594 11.567 3.3552 11.5861 3.3552 11.5861L1.09863 11.6292C1.1919 11.3876 1.36252 11.2643 1.36252 11.2643C1.36252 11.2643 1.48141 10.6329 1.55783 10.4983C1.55783 10.4983 1.75171 10.5743 1.96362 10.469C2.17578 10.3637 2.79848 9.82922 2.91998 9.69037C2.93132 9.67742 2.9446 9.66274 2.9592 9.64661C3.10104 9.48991 3.36673 9.19639 3.172 9.01701C3.172 9.01701 2.90361 8.9287 2.84997 8.93718C2.84997 8.93718 4.66491 7.69997 5.5159 7.61165C5.5159 7.61165 6.18583 7.69573 6.27624 7.61165C6.27624 7.61165 8.04016 5.62266 8.48654 5.26267C8.93291 4.90267 10.2037 3.88767 11.4372 3.61988C12.6708 3.35245 15.3177 3.22314 15.3177 3.22314C15.3177 3.22314 19.6754 3.32453 20.6859 3.54604C20.8193 3.57528 20.9395 3.59954 21.0486 3.62155C21.7657 3.76625 22.0012 3.81376 22.3347 4.54267C22.3814 4.64467 22.4324 4.75417 22.4862 4.86977C22.8756 5.70582 23.4136 6.861 23.5497 7.80949C23.7047 8.88913 23.6893 9.51656 23.6893 9.51656L23.7915 9.53493V10.5807H21.7336C21.7336 10.5807 21.633 10.5383 21.633 10.817C21.633 11.0957 21.9569 11.4081 22.2234 11.4081H23.9ZM13.5522 7.62651L13.6758 3.91066C14.5458 3.71953 17.4222 3.8446 17.4222 3.8446L17.7929 7.41313L13.5522 7.62651ZM8.99036 5.5L8.86672 7.9942L12.3957 7.69991L12.7614 3.91057C12.7614 3.91057 10.4137 3.89574 8.99036 5.5ZM6.60328 8.22702C6.60328 8.22702 8.27394 6.02252 8.79768 5.74307L8.62967 8.03871L6.60328 8.22702ZM18.3098 3.88621L18.3098 3.88657L18.3098 3.88657V3.88621ZM18.3098 3.88657C18.3217 3.88776 21.0952 4.16511 21.3813 4.23844C21.6168 4.29881 21.8991 5.22749 22.0526 5.73247L22.0527 5.73258C22.086 5.84218 22.1132 5.9318 22.1326 5.98825C22.2415 6.30444 22.2759 6.77078 22.1722 6.96191C22.0683 7.15303 21.6983 7.1972 21.6983 7.1972H18.6629L18.3098 3.88657Z" fill="#110401"/>
<path d="M3.54482 11.7137C3.56641 11.5664 3.35568 11.5858 3.35568 11.5858L1.09911 11.6289C1.06684 11.7123 1.04382 11.8094 1.04026 11.9204C1.03456 12.0952 1.06399 12.25 1.10125 12.3722C1.50372 12.3701 2.84855 12.3616 3.08918 12.3344C3.37277 12.3023 3.52322 11.861 3.54482 11.7137Z" fill="#1B1C1E"/>
<path d="M7.4084 13.8442C7.4084 14.2226 7.54485 14.7762 7.54485 14.7762L18.3059 14.3978C18.3059 14.3978 18.295 14.1113 18.3298 13.7012L7.40674 13.774C7.40792 13.8019 7.40864 13.8262 7.40864 13.8442H7.4084Z" fill="#CEC2DA"/>
<path d="M7.40658 13.7742L18.3297 13.7014C18.3325 13.6686 18.3356 13.635 18.3389 13.6011L7.40088 13.6739C7.40349 13.7124 7.40515 13.7452 7.40634 13.7742H7.40658Z" fill="black"/>
<path d="M7.61894 12.0077L17.8035 11.6201C17.8035 11.6201 18.2808 11.6756 18.4172 11.1404C18.4172 11.1404 18.4668 10.9927 18.1569 11.0019C17.847 11.0111 7.53208 11.5463 7.53208 11.5463C7.53208 11.5463 7.38946 11.7862 7.61894 12.0077Z" fill="#18181B"/>
<path d="M14.233 9.06415C14.233 9.22454 13.6183 9.2415 12.8599 9.2415C12.1014 9.2415 11.4868 9.25104 11.4868 9.06415C11.4868 8.87726 12.1014 8.8868 12.8599 8.8868C13.6183 8.8868 14.233 8.90447 14.233 9.06415Z" fill="#AEA3A8"/>
<path d="M21.5894 10.8014C21.5894 11.0801 21.9567 11.4447 22.2232 11.4447H23.8998C23.9007 11.3709 23.9019 11.3903 23.9031 11.3617C23.9342 10.688 23.7916 10.5587 23.7916 10.5587H21.7336C21.7336 10.5587 21.5894 10.5223 21.5894 10.8014Z" fill="#1B1C1E"/>
<path fill-rule="evenodd" clip-rule="evenodd" d="M12.8703 7.93469L6.25244 8.49995C7.36779 6.50247 9.46513 4.79434 10.6531 4.18069C11.7646 3.60654 15.2428 3.66451 16.7187 3.68912C16.8203 3.69081 16.9124 3.69234 16.9935 3.6935C18.2543 3.71152 21.2853 4.01853 21.4428 4.0906C21.5425 4.13617 21.5597 4.16734 21.6242 4.28452C21.6618 4.35264 21.7153 4.44982 21.8104 4.5958C22.0691 4.99253 22.4974 6.63495 22.4369 7.03204C22.3762 7.42913 21.5154 7.41111 21.5154 7.41111L12.8703 7.93469ZM13.5523 7.62671L13.6759 3.91086C14.5459 3.71973 17.4223 3.8448 17.4223 3.8448L17.793 7.41333L13.5523 7.62671ZM8.99048 5.5002L8.86684 7.99439L12.3959 7.70011L12.7616 3.91077C12.7616 3.91077 10.4139 3.89593 8.99048 5.5002ZM6.60341 8.22721C6.60341 8.22721 8.27407 6.02271 8.79781 5.74327L8.62979 8.03891L6.60341 8.22721ZM18.3099 3.88641L18.31 3.88677L18.3099 3.88676V3.88641ZM18.31 3.88677C18.3218 3.88795 21.0953 4.16531 21.3814 4.23863C21.6169 4.29901 21.8992 5.22769 22.0527 5.73267C22.0861 5.84231 22.1133 5.93198 22.1327 5.98845C22.2417 6.30464 22.2761 6.77098 22.1724 6.9621C22.0684 7.15323 21.6985 7.1974 21.6985 7.1974H18.663L18.31 3.88677Z" fill="#171618"/>
<path d="M12.7444 13.6413C12.687 13.0336 12.846 8.14061 12.8529 7.93288V7.93076L13.2546 3.34229L13.289 3.349L12.8875 7.93641C12.8844 8.03286 12.7223 13.034 12.7788 13.6342L12.7444 13.6413Z" fill="#1C1B21"/>
<path d="M18.0009 13.6161L17.9727 13.5857C18.4288 12.6435 18.6312 9.78716 18.6481 9.06328C18.6651 8.3235 18.3286 7.62542 18.3253 7.61871L18.3227 7.6134L18.322 7.60705L17.9527 3.79368L17.7783 3.3595L17.8082 3.33301L17.9862 3.77637L18.3559 7.59397C18.3875 7.6611 18.6993 8.34294 18.6827 9.06576C18.6659 9.79318 18.4618 12.665 18.0009 13.6168V13.6161Z" fill="#1C1B21"/>
<path d="M18.6612 8.92816C18.652 8.92816 18.6646 8.89319 18.6636 8.84655C18.6627 8.79886 18.6361 8.76813 18.6596 8.76318L23.5448 8.53955H23.5467C23.5778 8.53955 23.6037 8.57841 23.6046 8.62504C23.6056 8.67274 23.5804 8.70701 23.5484 8.70878L18.6631 8.92816H18.6612Z" fill="#1C1B21"/>
<path d="M3.23736 9.24745L3.23096 9.19658C3.25231 9.19057 5.37908 8.59141 6.25048 8.47412L6.25356 8.5257C5.38382 8.64264 3.25872 9.24144 3.23736 9.24745Z" fill="#1C1B21"/>
<path d="M7.55664 8.74967L8.1072 7.66545C8.1072 7.66545 8.27189 6.92956 8.68386 6.86526C9.09583 6.80061 9.61601 6.80732 9.64638 7.38177C9.67676 7.95621 9.49901 8.04028 9.32981 8.03357C9.16085 8.02721 8.48428 8.14343 8.48428 8.14343L8.54076 8.59529C8.54076 8.59529 7.60434 8.99557 7.55664 8.75004V8.74967Z" fill="#110401"/>
<path d="M7.17981 13.8207C7.17981 15.2451 6.40428 16.3997 5.44745 16.3997C4.49062 16.3997 3.71533 15.2451 3.71533 13.8207C3.71533 12.3962 4.49086 11.2417 5.44745 11.2417C6.40404 11.2417 7.17981 12.3962 7.17981 13.8207Z" fill="#18181A"/>
<path d="M4.14307 13.8206C4.14307 14.8967 4.72898 15.7686 5.45182 15.7686C6.17467 15.7686 6.76035 14.8963 6.76035 13.8206C6.76035 12.7448 6.17467 11.8726 5.45182 11.8726C4.72898 11.8726 4.14307 12.7448 4.14307 13.8206Z" fill="#B1ACA9"/>
<path d="M4.99767 12.5144L5.30048 13.0267C5.30048 13.0267 5.35292 13.1497 5.42435 13.1497C5.49578 13.1497 5.54823 13.0634 5.54823 13.0634L5.8648 12.5141C5.8648 12.5141 5.90894 12.436 5.8648 12.383C5.8209 12.3297 5.66617 12.252 5.45188 12.252C5.23759 12.252 4.92055 12.3378 4.99767 12.5141V12.5144Z" fill="#18181A"/>
<path d="M4.99743 15.1269L5.30024 14.6146C5.30024 14.6146 5.35268 14.4917 5.42411 14.4917C5.49554 14.4917 5.54798 14.5779 5.54798 14.5779L5.86455 15.1269C5.86455 15.1269 5.90869 15.205 5.86455 15.258C5.82065 15.3113 5.66593 15.3894 5.4514 15.3894C5.23687 15.3894 4.92007 15.3032 4.99719 15.1269H4.99743Z" fill="#18181A"/>
<path d="M6.33977 13.1696L5.99567 13.6204C5.99567 13.6204 5.91309 13.6981 5.91309 13.8048C5.91309 13.9115 5.97099 13.9892 5.97099 13.9892L6.34 14.4605C6.34 14.4605 6.39245 14.5258 6.42805 14.4605C6.46388 14.3951 6.51633 14.1648 6.51633 13.8454C6.51633 13.5261 6.45842 13.0544 6.34024 13.1696H6.33977Z" fill="#18181A"/>
<path d="M4.58501 13.1696L4.92911 13.6204C4.92911 13.6204 5.01169 13.6981 5.01169 13.8048C5.01169 13.9115 4.95379 13.9892 4.95379 13.9892L4.58501 14.4605C4.58501 14.4605 4.53257 14.5258 4.49673 14.4605C4.4609 14.3948 4.40869 14.1648 4.40869 13.8454C4.40869 13.5261 4.4666 13.0544 4.58501 13.1696Z" fill="#18181A"/>
<path d="M21.9689 13.8207C21.9689 15.2451 21.1933 16.3997 20.2365 16.3997C19.2797 16.3997 18.5044 15.2451 18.5044 13.8207C18.5044 12.3962 19.2799 11.2417 20.2365 11.2417C21.1931 11.2417 21.9689 12.3962 21.9689 13.8207Z" fill="#18181A"/>
<path d="M18.9321 13.8206C18.9321 14.8967 19.518 15.7686 20.2409 15.7686C20.9637 15.7686 21.5494 14.8963 21.5494 13.8206C21.5494 12.7448 20.9637 11.8726 20.2409 11.8726C19.518 11.8726 18.9321 12.7448 18.9321 13.8206Z" fill="#B1ACA9"/>
<path d="M19.7862 12.5144L20.0891 13.0267C20.0891 13.0267 20.1415 13.1497 20.2129 13.1497C20.2844 13.1497 20.3368 13.0634 20.3368 13.0634L20.6534 12.5141C20.6534 12.5141 20.6975 12.436 20.6534 12.383C20.6095 12.3297 20.4547 12.252 20.2405 12.252C20.0262 12.252 19.7091 12.3378 19.7862 12.5141V12.5144Z" fill="#18181A"/>
<path d="M19.7865 15.1269L20.0893 14.6146C20.0893 14.6146 20.1417 14.4917 20.2132 14.4917C20.2846 14.4917 20.337 14.5779 20.337 14.5779L20.6536 15.1269C20.6536 15.1269 20.6978 15.205 20.6536 15.258C20.6095 15.3113 20.455 15.3894 20.2405 15.3894C20.0259 15.3894 19.7091 15.3032 19.7863 15.1269H19.7865Z" fill="#18181A"/>
<path d="M21.1288 13.1696L20.7847 13.6204C20.7847 13.6204 20.7021 13.6981 20.7021 13.8048C20.7021 13.9115 20.7601 13.9892 20.7601 13.9892L21.1291 14.4605C21.1291 14.4605 21.1815 14.5258 21.2171 14.4605C21.2529 14.3951 21.3054 14.1648 21.3054 13.8454C21.3054 13.5261 21.2475 13.0544 21.1293 13.1696H21.1288Z" fill="#18181A"/>
<path d="M19.3741 13.1696L19.7182 13.6204C19.7182 13.6204 19.8008 13.6981 19.8008 13.8048C19.8008 13.9115 19.7429 13.9892 19.7429 13.9892L19.3741 14.4605C19.3741 14.4605 19.3216 14.5258 19.2858 14.4605C19.25 14.3948 19.1978 14.1648 19.1978 13.8454C19.1978 13.5261 19.2557 13.0544 19.3741 13.1696Z" fill="#18181A"/>
<defs>
<linearGradient id="paint0_linear_502_42512" x1="2.6477" y1="8.85449" x2="2.6477" y2="11.0201" gradientUnits="userSpaceOnUse">
<stop stop-color="#ABC8F4"/>
<stop offset="1" stop-color="#C4E4D3"/>
</linearGradient>
</defs>
</svg>
