<svg width="14" height="14" viewBox="0 0 14 14" fill="none" xmlns="http://www.w3.org/2000/svg">
<path d="M4.42742 3.30312C3.97242 2.84812 3.97242 2.10729 4.42742 1.65229C4.88242 1.19729 5.62325 1.19729 6.07825 1.65229C6.53325 2.10729 6.53325 2.84812 6.07825 3.30312C5.61742 3.76395 4.88242 3.76395 4.42742 3.30312ZM3.49992 9.48062V4.23062H2.33325V9.48062C2.33325 11.0906 3.63992 12.3973 5.24992 12.3973H8.74992V11.2306H5.24992C4.28159 11.2306 3.49992 10.449 3.49992 9.48062ZM11.6666 11.8548L8.70909 8.89728H6.70825V6.75062C7.52492 7.42145 8.80825 8.01062 9.91659 8.01062V6.75062C8.94825 6.76228 7.81075 6.24312 7.19242 5.56062L6.37575 4.65645C6.26492 4.53395 6.12492 4.43479 5.97325 4.36479C5.80409 4.28312 5.61159 4.23062 5.41325 4.23062H5.39575C4.67242 4.23062 4.08325 4.81979 4.08325 5.54312V8.89728C4.08325 9.86562 4.86492 10.6473 5.83325 10.6473H8.79075L10.8324 12.689L11.6666 11.8548Z" fill="url(#paint0_linear_96_4602)"/>
<defs>
<linearGradient id="paint0_linear_96_4602" x1="6.99992" y1="1.31104" x2="6.99992" y2="19.8001" gradientUnits="userSpaceOnUse">
<stop stop-color="#317DC1"/>
<stop offset="1" stop-color="#ABC8F4"/>
</linearGradient>
</defs>
</svg>
