<svg width="314" height="265" viewBox="0 0 314 265" fill="none" xmlns="http://www.w3.org/2000/svg">
<path d="M314 232.489H0V232.667H314V232.489Z" fill="#EBEBEB"/>
<path d="M282.537 243.913H261.738V244.091H282.537V243.913Z" fill="#EBEBEB"/>
<path d="M208.006 245.845H202.549V246.022H208.006V245.845Z" fill="#EBEBEB"/>
<path d="M261.11 237.324H249.059V237.502H261.11V237.324Z" fill="#EBEBEB"/>
<path d="M60.0681 238.518H32.9448V238.695H60.0681V238.518Z" fill="#EBEBEB"/>
<path d="M69.6389 238.518H65.6637V238.695H69.6389V238.518Z" fill="#EBEBEB"/>
<path d="M141.394 241.514H82.5632V241.691H141.394V241.514Z" fill="#EBEBEB"/>
<path d="M148.842 200.823H27.5755C25.5973 200.823 23.9896 199.006 23.9896 196.769V4.0541C23.9896 1.8176 25.5973 0 27.5755 0H148.842C150.821 0 152.428 1.8176 152.428 4.0541V196.769C152.428 199.006 150.821 200.823 148.842 200.823ZM27.5755 0.1775C25.6852 0.1775 24.1466 1.917 24.1466 4.0541V196.769C24.1466 198.906 25.6852 200.646 27.5755 200.646H148.842C150.733 200.646 152.271 198.906 152.271 196.769V4.0541C152.271 1.917 150.733 0.1775 148.842 0.1775H27.5755Z" fill="#EBEBEB"/>
<path d="M284.679 200.823H163.412C161.434 200.823 159.826 199.006 159.826 196.769V4.0541C159.826 1.8176 161.434 0 163.412 0H284.679C286.657 0 288.265 1.8176 288.265 4.0541V196.769C288.265 199.006 286.657 200.823 284.679 200.823ZM163.412 0.1775C161.522 0.1775 159.983 1.917 159.983 4.0541V196.769C159.983 198.906 161.522 200.646 163.412 200.646H284.679C286.569 200.646 288.108 198.906 288.108 196.769V4.0541C288.108 1.917 286.569 0.1775 284.679 0.1775H163.412Z" fill="#EBEBEB"/>
<path d="M254.949 221.924C255.087 220.064 254.861 217.657 252.94 216.94C249.687 215.726 247.759 212.879 247.865 209.662C247.972 206.439 244.549 203.308 241.981 206.325C239.412 209.343 239.758 204.004 236.335 202.704C232.913 201.405 230.011 204.558 230.947 207.433C231.883 210.309 228.504 212.105 224.46 209.662C220.415 207.213 215.963 211.665 216.823 215.151C217.684 218.637 216.98 219.02 214.418 217.863C212.352 216.926 208.967 218.892 208.59 221.931H254.949V221.924Z" fill="#E0E0E0"/>
<path d="M82.0293 221.924C82.1863 220.455 82.1172 218.303 80.5032 217.7C77.9787 216.755 76.484 214.547 76.5657 212.048C76.6473 209.549 73.9909 207.114 72.0001 209.457C70.0094 211.8 70.2731 207.653 67.6167 206.645C64.9602 205.637 62.7057 208.079 63.4342 210.316C64.1627 212.552 61.5376 213.944 58.3976 212.048C55.2576 210.152 51.8036 213.603 52.4693 216.308C53.135 219.013 52.5886 219.311 50.6042 218.41C48.9211 217.643 46.1202 219.368 46.0637 221.917H82.0356L82.0293 221.924Z" fill="#E0E0E0"/>
<path d="M86.218 221.924H145.319C146.148 218.786 144 215.03 141.658 214.497C138.782 213.844 135.887 208.122 135.755 204.479C135.623 200.837 130.442 189.626 122.385 196.549C114.327 203.471 116.777 197.571 110.949 195.626C105.121 193.68 101.447 199.275 104.003 203.471C104.003 203.471 98.15 201.81 95.7385 207.994C93.327 214.171 95.7385 218.012 95.7385 218.012C95.7385 218.012 88.3407 217.77 86.218 221.924Z" fill="#E0E0E0"/>
<path d="M179.175 46.5615C179.175 44.8291 180.418 43.4162 181.957 43.4162C182.233 43.4162 182.503 43.4659 182.754 43.5511C182.717 43.2387 182.691 42.9121 182.691 42.5855C182.691 38.9077 185.329 35.9328 188.576 35.9328C188.946 35.9328 189.311 35.9754 189.662 36.0464C190.567 34.3708 192.193 33.249 194.052 33.249C196.872 33.249 199.158 35.8121 199.195 38.9858C199.227 38.9858 199.252 38.9858 199.283 38.9858C201.902 38.9858 204.025 41.3856 204.025 44.3463C204.025 47.307 201.902 49.7068 199.283 49.7068H181.869C180.368 49.6571 179.168 48.2726 179.168 46.5615H179.175Z" fill="#F5F5F5"/>
<path d="M81.2255 65.085C81.2255 63.3526 82.469 61.9397 84.0076 61.9397C84.2839 61.9397 84.5539 61.9894 84.8051 62.0746C84.7674 61.7622 84.7423 61.4356 84.7423 61.109C84.7423 57.4312 87.3799 54.4563 90.6267 54.4563C90.9972 54.4563 91.3614 54.4989 91.7131 54.5699C92.6174 52.8943 94.244 51.7725 96.1028 51.7725C98.9226 51.7725 101.208 54.3356 101.246 57.5093C101.278 57.5093 101.303 57.5093 101.334 57.5093C103.953 57.5093 106.075 59.9091 106.075 62.8698C106.075 65.8305 103.953 68.2303 101.334 68.2303H83.9196C82.4187 68.1806 81.2192 66.7961 81.2192 65.085H81.2255Z" fill="#F5F5F5"/>
<path d="M144.302 55.9766C144.302 54.8974 145.074 54.0241 146.029 54.0241C146.198 54.0241 146.368 54.0525 146.525 54.1093C146.5 53.9105 146.487 53.7117 146.487 53.5129C146.487 51.2267 148.126 49.3736 150.148 49.3736C150.381 49.3736 150.607 49.402 150.82 49.4446C151.386 48.4009 152.397 47.7051 153.552 47.7051C155.304 47.7051 156.724 49.2955 156.749 51.2693C156.768 51.2693 156.786 51.2693 156.799 51.2693C158.426 51.2693 159.744 52.7603 159.744 54.5992C159.744 56.4381 158.426 57.9291 156.799 57.9291H145.972C145.043 57.8936 144.296 57.0345 144.296 55.9766H144.302Z" fill="#F5F5F5"/>
<path d="M48.8521 52.1563C48.8521 51.0771 49.6245 50.2038 50.5791 50.2038C50.7487 50.2038 50.9182 50.2322 51.0752 50.289C51.0501 50.0902 51.0375 49.8914 51.0375 49.6926C51.0375 47.4064 52.6766 45.5533 54.6988 45.5533C54.9311 45.5533 55.1572 45.5817 55.3707 45.6243C55.9359 44.5806 56.947 43.8848 58.1025 43.8848C59.8547 43.8848 61.2739 45.4752 61.2991 47.449C61.3179 47.449 61.3367 47.449 61.3493 47.449C62.9758 47.449 64.2946 48.94 64.2946 50.7789C64.2946 52.6178 62.9758 54.1088 61.3493 54.1088H50.5226C49.5931 54.0733 48.8458 53.2142 48.8458 52.1563H48.8521Z" fill="#F5F5F5"/>
<path d="M241.51 63.9639C241.51 62.8847 242.282 62.0114 243.237 62.0114C243.407 62.0114 243.576 62.0398 243.733 62.0966C243.708 61.8978 243.695 61.699 243.695 61.5002C243.695 59.214 245.334 57.3609 247.357 57.3609C247.589 57.3609 247.815 57.3893 248.029 57.4319C248.594 56.3882 249.605 55.6924 250.76 55.6924C252.512 55.6924 253.932 57.2828 253.957 59.2566C253.976 59.2566 253.995 59.2566 254.007 59.2566C255.634 59.2566 256.952 60.7476 256.952 62.5865C256.952 64.4254 255.634 65.9164 254.007 65.9164H243.18C242.251 65.8809 241.504 65.0218 241.504 63.9639H241.51Z" fill="#F5F5F5"/>
<path d="M92.0145 119.671C91.9266 119.316 91.8764 118.904 91.8512 118.449C91.7194 115.915 89.5779 116.319 87.7567 115.971C86.3374 115.702 90.0991 111.64 87.2354 110.334C86.7016 110.093 86.1239 109.816 85.8538 109.241C85.4959 108.488 85.8538 107.487 86.4756 106.99C87.0973 106.493 87.8948 106.386 88.6547 106.372C89.1194 105.726 88.7426 104.761 88.2905 104.107C87.8383 103.454 87.2857 102.702 87.4552 101.892C87.7127 100.671 89.2262 100.628 90.3189 100.863C90.7208 100.124 90.7146 99.2012 90.9092 98.3634C91.1039 97.5256 91.6942 96.6452 92.4541 96.7517C93.17 96.8511 93.6096 97.767 94.313 97.9516C95.1294 98.1717 95.839 97.3552 96.4796 96.7375C97.1202 96.1269 98.2443 95.7435 98.6839 96.5458C98.9476 97.0286 98.7906 97.7031 99.067 98.1788C99.5442 99.0024 100.675 98.4912 101.372 97.909C102.075 97.3268 103.193 96.7943 103.683 97.6037C103.833 97.8522 103.865 98.1646 103.953 98.4486C104.286 99.5278 105.322 100.067 106.126 100.763C106.93 101.459 107.57 102.836 106.886 103.681C106.546 104.1 105.956 104.271 105.793 104.803C105.586 105.471 106.188 106.067 106.659 106.521C107.451 107.281 107.595 109.56 106.546 110.185C106.107 110.448 105.46 110.526 105.353 111.072C105.259 111.562 105.699 111.946 105.988 112.322C106.791 113.359 106.452 115.233 105.353 115.822C105.102 115.957 104.794 116.071 104.7 116.369C104.631 116.582 104.7 116.816 104.763 117.029C104.863 117.441 104.901 117.874 104.863 118.3C104.851 118.442 104.826 118.606 104.725 118.698C104.637 118.783 104.512 118.797 104.392 118.804C102.879 118.882 102.15 118.272 101.227 119.763C101.139 119.905 101.045 120.054 100.913 120.139C100.788 120.224 100.637 120.246 100.499 120.26C99.4563 120.359 98.7781 119.621 97.8298 119.486C96.511 119.294 96.2347 120.061 95.0729 120.679C93.2454 121.651 92.3599 121.048 92.0145 119.642V119.671Z" fill="#EBEBEB"/>
<path d="M109.429 117.54C109.341 117.185 109.291 116.773 109.266 116.319C109.134 113.784 106.992 114.189 105.171 113.841C103.752 113.571 107.514 109.51 104.65 108.204C104.116 107.962 103.538 107.685 103.268 107.11C102.91 106.358 103.268 105.357 103.89 104.86C104.512 104.363 105.309 104.256 106.069 104.242C106.534 103.596 106.157 102.63 105.705 101.977C105.253 101.324 104.7 100.571 104.87 99.7617C105.127 98.5405 106.641 98.4979 107.733 98.7322C108.135 97.9938 108.129 97.0708 108.324 96.233C108.518 95.3952 109.109 94.5148 109.869 94.6213C110.584 94.7207 111.024 95.6366 111.727 95.8212C112.544 96.0413 113.253 95.2248 113.894 94.6071C114.535 93.9965 115.659 93.6131 116.098 94.4225C116.362 94.9053 116.205 95.5798 116.481 96.0555C116.959 96.8791 118.089 96.3679 118.786 95.7857C119.49 95.2035 120.607 94.671 121.097 95.4804C121.248 95.7289 121.279 96.0413 121.367 96.3253C121.7 97.4045 122.736 97.9441 123.54 98.6399C124.344 99.3357 124.985 100.713 124.3 101.558C123.961 101.977 123.371 102.147 123.207 102.68C123 103.347 123.603 103.944 124.074 104.398C124.865 105.158 125.01 107.437 123.961 108.062C123.521 108.324 122.874 108.402 122.768 108.949C122.673 109.439 123.113 109.822 123.402 110.199C124.206 111.235 123.867 113.11 122.768 113.699C122.516 113.834 122.209 113.948 122.115 114.246C122.045 114.459 122.115 114.693 122.177 114.906C122.278 115.318 122.316 115.751 122.278 116.177C122.265 116.319 122.24 116.482 122.14 116.575C122.052 116.66 121.926 116.674 121.807 116.681C120.293 116.759 119.565 116.149 118.642 117.64C118.554 117.782 118.46 117.931 118.328 118.016C118.202 118.101 118.051 118.122 117.913 118.137C116.871 118.236 116.193 117.498 115.244 117.363C113.925 117.171 113.649 117.938 112.487 118.555C110.66 119.528 109.774 118.925 109.429 117.519V117.54Z" fill="#EBEBEB"/>
<path d="M111.112 105.002C111.024 104.647 110.974 104.235 110.949 103.78C110.817 101.246 108.675 101.65 106.854 101.302C105.435 101.033 109.197 96.9715 106.333 95.6651C105.799 95.4237 105.221 95.1468 104.951 94.5717C104.593 93.8191 104.951 92.818 105.573 92.321C106.195 91.824 106.992 91.7175 107.752 91.7033C108.217 91.0572 107.84 90.0916 107.388 89.4384C106.936 88.7852 106.383 88.0326 106.553 87.2232C106.81 86.002 108.324 85.9594 109.416 86.1937C109.818 85.4553 109.812 84.5323 110.007 83.6945C110.201 82.8567 110.792 81.9763 111.552 82.0828C112.267 82.1822 112.707 83.0981 113.41 83.2827C114.227 83.5028 114.936 82.6863 115.577 82.0686C116.218 81.458 117.342 81.0746 117.781 81.8769C118.045 82.3597 117.888 83.0342 118.164 83.5099C118.642 84.3335 119.772 83.8223 120.469 83.2401C121.173 82.6579 122.29 82.1254 122.78 82.9348C122.931 83.1833 122.962 83.4957 123.05 83.7797C123.383 84.8589 124.419 85.3985 125.223 86.0943C126.027 86.7901 126.668 88.1675 125.983 89.0124C125.644 89.4313 125.054 89.6017 124.89 90.1342C124.683 90.8016 125.286 91.398 125.757 91.8524C126.548 92.6121 126.693 94.8912 125.644 95.516C125.204 95.7787 124.557 95.8568 124.451 96.4035C124.356 96.8934 124.796 97.2768 125.085 97.6531C125.889 98.6897 125.55 100.564 124.451 101.153C124.199 101.288 123.892 101.402 123.798 101.7C123.728 101.913 123.798 102.147 123.86 102.36C123.961 102.772 123.999 103.205 123.961 103.631C123.948 103.773 123.923 103.937 123.823 104.029C123.735 104.114 123.609 104.128 123.49 104.135C121.976 104.213 121.248 103.603 120.325 105.094C120.237 105.236 120.143 105.385 120.011 105.47C119.885 105.555 119.734 105.577 119.596 105.591C118.554 105.69 117.876 104.952 116.927 104.817C115.608 104.625 115.332 105.392 114.17 106.01C112.343 106.982 111.457 106.379 111.112 104.973V105.002Z" fill="#EBEBEB"/>
<path d="M122.586 111.25C122.498 110.895 122.447 110.483 122.422 110.028C122.29 107.494 120.149 107.898 118.328 107.551C116.908 107.281 120.67 103.22 117.806 101.913C117.273 101.672 116.695 101.395 116.425 100.82C116.067 100.067 116.425 99.066 117.047 98.569C117.668 98.072 118.466 97.9655 119.226 97.9513C119.69 97.3052 119.314 96.3396 118.862 95.6864C118.409 95.0332 117.857 94.2806 118.026 93.4712C118.284 92.25 119.797 92.2074 120.89 92.4417C121.292 91.7033 121.286 90.7803 121.48 89.9425C121.675 89.1047 122.265 88.2243 123.025 88.3308C123.741 88.4302 124.181 89.3461 124.884 89.5307C125.7 89.7508 126.41 88.9343 127.051 88.3166C127.691 87.706 128.815 87.3226 129.255 88.1249C129.519 88.6077 129.362 89.2822 129.638 89.7579C130.115 90.5815 131.246 90.0703 131.943 89.4881C132.646 88.9059 133.764 88.3734 134.254 89.1828C134.405 89.4313 134.436 89.7437 134.524 90.0277C134.857 91.1069 135.893 91.6465 136.697 92.3423C137.501 93.0381 138.141 94.4155 137.457 95.2604C137.117 95.6793 136.527 95.8497 136.364 96.3822C136.157 97.0496 136.76 97.646 137.231 98.1004C138.022 98.8601 138.166 101.139 137.117 101.764C136.678 102.027 136.031 102.105 135.924 102.652C135.83 103.141 136.27 103.525 136.559 103.901C137.362 104.938 137.023 106.812 135.924 107.401C135.673 107.536 135.365 107.65 135.271 107.948C135.202 108.161 135.271 108.395 135.334 108.608C135.434 109.02 135.472 109.453 135.434 109.879C135.422 110.021 135.397 110.185 135.296 110.277C135.208 110.362 135.083 110.376 134.963 110.383C133.45 110.462 132.721 109.858 131.798 111.342C131.71 111.484 131.616 111.633 131.484 111.718C131.359 111.803 131.214 111.825 131.07 111.839C130.027 111.938 129.349 111.2 128.401 111.065C127.082 110.873 126.806 111.64 125.644 112.258C123.816 113.231 122.931 112.634 122.586 111.221V111.25Z" fill="#EBEBEB"/>
<path d="M134.178 108.367C134.091 108.012 134.04 107.6 134.015 107.146C133.883 104.611 131.742 105.016 129.921 104.668C128.501 104.398 132.263 100.337 129.399 99.0304C128.866 98.789 128.288 98.5122 128.018 97.9371C127.66 97.1774 128.018 96.1834 128.64 95.6864C129.261 95.1894 130.059 95.0829 130.819 95.0687C131.283 94.4226 130.907 93.457 130.454 92.8038C130.002 92.1506 129.45 91.3979 129.619 90.5885C129.877 89.3673 131.39 89.3248 132.483 89.5591C132.885 88.8207 132.879 87.8977 133.073 87.0599C133.268 86.2221 133.858 85.3417 134.618 85.4482C135.334 85.5476 135.774 86.4635 136.477 86.6481C137.293 86.8682 138.003 86.0517 138.644 85.434C139.284 84.8163 140.408 84.44 140.848 85.2423C141.112 85.7251 140.955 86.3996 141.231 86.8753C141.708 87.6989 142.839 87.1876 143.536 86.6054C144.239 86.0232 145.357 85.4908 145.847 86.3002C145.997 86.5487 146.029 86.8611 146.117 87.1451C146.45 88.2243 147.486 88.7639 148.29 89.4597C149.093 90.1555 149.734 91.5329 149.05 92.3778C148.71 92.7967 148.12 92.9671 147.957 93.4996C147.75 94.167 148.352 94.7634 148.823 95.2178C149.615 95.9775 149.759 98.2566 148.71 98.8814C148.271 99.1441 147.624 99.2222 147.517 99.7689C147.423 100.259 147.863 100.642 148.151 101.018C148.955 102.055 148.616 103.929 147.517 104.519C147.266 104.654 146.958 104.767 146.864 105.065C146.795 105.278 146.864 105.513 146.927 105.726C147.027 106.138 147.065 106.571 147.027 106.997C147.015 107.139 146.99 107.302 146.889 107.394C146.801 107.479 146.676 107.494 146.556 107.501C145.043 107.579 144.314 106.968 143.391 108.459C143.303 108.601 143.209 108.75 143.077 108.836C142.952 108.921 142.807 108.942 142.663 108.956C141.62 109.056 140.942 108.317 139.994 108.182C138.675 107.991 138.399 108.757 137.237 109.375C135.409 110.348 134.524 109.744 134.178 108.339V108.367Z" fill="#EBEBEB"/>
<path d="M134.329 122.389C134.26 122.105 134.222 121.786 134.204 121.431C134.097 119.436 132.414 119.755 130.982 119.478C129.864 119.265 132.828 116.07 130.567 115.041C130.147 114.849 129.695 114.636 129.481 114.182C129.198 113.585 129.481 112.804 129.971 112.414C130.461 112.023 131.089 111.938 131.685 111.931C132.056 111.427 131.754 110.66 131.396 110.149C131.038 109.631 130.605 109.041 130.737 108.409C130.938 107.444 132.131 107.415 132.992 107.6C133.312 107.018 133.306 106.294 133.456 105.633C133.607 104.973 134.078 104.277 134.675 104.362C135.24 104.441 135.585 105.165 136.138 105.307C136.778 105.477 137.337 104.838 137.846 104.355C138.348 103.873 139.234 103.574 139.579 104.206C139.786 104.59 139.661 105.115 139.881 105.491C140.257 106.137 141.143 105.74 141.696 105.278C142.248 104.817 143.127 104.398 143.517 105.037C143.636 105.236 143.661 105.477 143.73 105.704C143.994 106.556 144.804 106.982 145.438 107.529C146.073 108.076 146.575 109.162 146.041 109.829C145.778 110.156 145.313 110.291 145.181 110.71C145.018 111.235 145.489 111.704 145.866 112.066C146.487 112.662 146.6 114.459 145.778 114.949C145.432 115.154 144.924 115.218 144.842 115.651C144.767 116.035 145.112 116.34 145.344 116.638C145.979 117.455 145.709 118.925 144.842 119.4C144.641 119.507 144.402 119.592 144.327 119.826C144.277 119.997 144.327 120.174 144.377 120.345C144.459 120.671 144.484 121.012 144.459 121.346C144.446 121.459 144.427 121.587 144.352 121.658C144.283 121.729 144.182 121.736 144.088 121.743C142.895 121.8 142.324 121.324 141.595 122.496C141.526 122.609 141.451 122.723 141.344 122.794C141.243 122.858 141.13 122.879 141.017 122.886C140.201 122.964 139.661 122.382 138.914 122.276C137.877 122.127 137.658 122.73 136.741 123.22C135.303 123.987 134.605 123.511 134.335 122.404L134.329 122.389Z" fill="#EBEBEB"/>
<path d="M140.829 117.54C140.741 117.185 140.691 116.773 140.666 116.319C140.534 113.784 138.392 114.189 136.571 113.841C135.152 113.571 138.914 109.51 136.05 108.204C135.516 107.962 134.938 107.685 134.668 107.11C134.31 106.358 134.668 105.357 135.29 104.86C135.912 104.363 136.709 104.256 137.469 104.242C137.934 103.596 137.557 102.63 137.105 101.977C136.653 101.324 136.1 100.571 136.27 99.7617C136.527 98.5405 138.041 98.4979 139.133 98.7322C139.535 97.9938 139.529 97.0708 139.724 96.233C139.918 95.3952 140.509 94.5148 141.269 94.6213C141.984 94.7207 142.424 95.6366 143.127 95.8212C143.944 96.0413 144.654 95.2248 145.294 94.6071C145.935 93.9965 147.059 93.6131 147.498 94.4225C147.762 94.9053 147.605 95.5798 147.881 96.0555C148.359 96.8791 149.489 96.3679 150.186 95.7857C150.89 95.2035 152.007 94.671 152.497 95.4804C152.648 95.7289 152.679 96.0413 152.767 96.3253C153.1 97.4045 154.136 97.9441 154.94 98.6399C155.744 99.3357 156.385 100.713 155.7 101.558C155.361 101.977 154.771 102.147 154.607 102.68C154.4 103.347 155.003 103.944 155.474 104.398C156.265 105.158 156.41 107.437 155.361 108.062C154.921 108.324 154.274 108.402 154.168 108.949C154.074 109.439 154.513 109.822 154.802 110.199C155.606 111.235 155.267 113.11 154.168 113.699C153.917 113.834 153.609 113.948 153.515 114.246C153.445 114.459 153.515 114.693 153.577 114.906C153.678 115.318 153.716 115.751 153.678 116.177C153.665 116.319 153.64 116.482 153.54 116.575C153.452 116.66 153.326 116.674 153.207 116.681C151.693 116.759 150.965 116.149 150.042 117.64C149.954 117.782 149.86 117.931 149.728 118.016C149.602 118.101 149.451 118.122 149.313 118.137C148.271 118.236 147.593 117.498 146.644 117.363C145.325 117.171 145.049 117.938 143.887 118.555C142.06 119.528 141.174 118.925 140.829 117.519V117.54Z" fill="#EBEBEB"/>
<path d="M122.586 95.8214C122.498 95.4664 122.447 95.0546 122.422 94.6002C122.29 92.0655 120.149 92.4702 118.328 92.1223C116.908 91.8525 120.67 87.7913 117.806 86.4849C117.273 86.2435 116.695 85.9666 116.425 85.3915C116.067 84.6389 116.425 83.6378 117.047 83.1408C117.668 82.6438 118.466 82.5373 119.226 82.5231C119.69 81.877 119.314 80.9114 118.862 80.2582C118.409 79.605 117.857 78.8524 118.026 78.043C118.284 76.8218 119.797 76.7792 120.89 77.0135C121.292 76.2751 121.286 75.3521 121.48 74.5143C121.675 73.6765 122.265 72.7961 123.025 72.9026C123.741 73.002 124.181 73.9179 124.884 74.1025C125.7 74.3226 126.41 73.5061 127.051 72.8884C127.691 72.2778 128.815 71.8944 129.255 72.7038C129.519 73.1866 129.362 73.8611 129.638 74.3368C130.115 75.1604 131.246 74.6492 131.943 74.067C132.646 73.4848 133.764 72.9523 134.254 73.7617C134.405 74.0102 134.436 74.3226 134.524 74.6066C134.857 75.6858 135.893 76.2254 136.697 76.9212C137.501 77.617 138.141 78.9944 137.457 79.8393C137.117 80.2582 136.527 80.4286 136.364 80.9611C136.157 81.6285 136.76 82.2249 137.231 82.6793C138.022 83.439 138.166 85.7181 137.117 86.3429C136.678 86.6056 136.031 86.6837 135.924 87.2304C135.83 87.7203 136.27 88.1037 136.559 88.48C137.362 89.5166 137.023 91.391 135.924 91.9803C135.673 92.1152 135.365 92.2288 135.271 92.527C135.202 92.74 135.271 92.9743 135.334 93.1873C135.434 93.5991 135.472 94.0322 135.434 94.4582C135.422 94.6002 135.397 94.7635 135.296 94.8558C135.208 94.941 135.083 94.9552 134.963 94.9623C133.45 95.0404 132.721 94.4298 131.798 95.9208C131.71 96.0628 131.616 96.2119 131.484 96.2971C131.359 96.3823 131.214 96.4036 131.07 96.4178C130.027 96.5172 129.349 95.7788 128.401 95.6439C127.082 95.4522 126.806 96.219 125.644 96.8367C123.816 97.8094 122.931 97.2059 122.586 95.8001V95.8214Z" fill="#EBEBEB"/>
<path d="M107.683 96.6876C107.595 96.3326 107.545 95.9208 107.52 95.4664C107.388 92.9317 105.246 93.3364 103.425 92.9885C102.006 92.7187 105.768 88.6575 102.904 87.3511C102.37 87.1097 101.792 86.8328 101.522 86.2577C101.164 85.5051 101.522 84.504 102.144 84.007C102.766 83.51 103.563 83.4035 104.323 83.3893C104.788 82.7432 104.411 81.7776 103.959 81.1244C103.507 80.4712 102.954 79.7186 103.124 78.9092C103.381 77.688 104.895 77.6454 105.988 77.8797C106.389 77.1413 106.383 76.2183 106.578 75.3805C106.773 74.5427 107.363 73.6623 108.123 73.7688C108.839 73.8682 109.278 74.7841 109.982 74.9687C110.798 75.1888 111.508 74.3723 112.148 73.7546C112.789 73.144 113.913 72.7606 114.352 73.57C114.616 74.0528 114.459 74.7273 114.736 75.203C115.213 76.0266 116.343 75.5154 117.04 74.9332C117.744 74.351 118.862 73.8185 119.351 74.6279C119.502 74.8764 119.533 75.1888 119.621 75.4728C119.954 76.552 120.99 77.0916 121.794 77.7874C122.598 78.4832 123.239 79.8606 122.554 80.7055C122.215 81.1244 121.625 81.2948 121.461 81.8273C121.254 82.4947 121.857 83.0911 122.328 83.5455C123.119 84.3052 123.264 86.5843 122.215 87.2091C121.775 87.4718 121.129 87.5499 121.022 88.0966C120.928 88.5865 121.367 88.9699 121.656 89.3462C122.46 90.3828 122.121 92.2572 121.022 92.8465C120.771 92.9814 120.463 93.095 120.369 93.3932C120.3 93.6062 120.369 93.8405 120.432 94.0535C120.532 94.4653 120.57 94.8984 120.532 95.3244C120.519 95.4664 120.494 95.6297 120.394 95.722C120.306 95.8072 120.18 95.8214 120.061 95.8285C118.548 95.9066 117.819 95.296 116.896 96.787C116.808 96.929 116.714 97.0781 116.582 97.1633C116.456 97.2485 116.312 97.2698 116.167 97.284C115.125 97.3834 114.447 96.645 113.498 96.5101C112.18 96.3184 111.903 97.0852 110.741 97.7029C108.914 98.6756 108.029 98.0792 107.683 96.6663V96.6876Z" fill="#EBEBEB"/>
<path d="M98.6399 103.575C98.552 103.22 98.5017 102.808 98.4766 102.354C98.3447 99.8189 96.2033 100.224 94.3821 99.8757C92.9628 99.6059 96.7245 95.5447 93.8608 94.2383C93.327 93.9969 92.7493 93.72 92.4792 93.1449C92.1213 92.3923 92.4792 91.3912 93.1009 90.8942C93.7227 90.3972 94.5202 90.2907 95.2801 90.2765C95.7448 89.6304 95.368 88.6648 94.9159 88.0116C94.4637 87.3584 93.9111 86.6058 94.0806 85.7964C94.3381 84.5752 95.8516 84.5326 96.9443 84.7669C97.3462 84.0285 97.3399 83.1055 97.5346 82.2677C97.7293 81.4299 98.3196 80.5495 99.0795 80.656C99.7954 80.7554 100.235 81.6713 100.938 81.8559C101.755 82.076 102.464 81.2595 103.105 80.6418C103.746 80.0312 104.87 79.6478 105.309 80.4501C105.573 80.9329 105.416 81.6074 105.692 82.0831C106.17 82.9067 107.3 82.3955 107.997 81.8133C108.7 81.2311 109.818 80.6986 110.308 81.508C110.459 81.7565 110.49 82.0689 110.578 82.3529C110.911 83.4321 111.947 83.9717 112.751 84.6675C113.555 85.3633 114.195 86.7407 113.511 87.5856C113.172 88.0045 112.581 88.1749 112.418 88.7074C112.211 89.3748 112.814 89.9712 113.285 90.4256C114.076 91.1853 114.221 93.4644 113.172 94.0892C112.732 94.3519 112.085 94.43 111.979 94.9767C111.884 95.4666 112.324 95.85 112.613 96.2263C113.417 97.2629 113.078 99.1373 111.979 99.7266C111.727 99.8615 111.42 99.9751 111.326 100.273C111.256 100.486 111.325 100.721 111.388 100.934C111.489 101.345 111.526 101.779 111.489 102.205C111.476 102.347 111.451 102.51 111.351 102.602C111.263 102.687 111.137 102.702 111.018 102.709C109.504 102.787 108.776 102.176 107.853 103.667C107.765 103.809 107.671 103.958 107.539 104.043C107.413 104.129 107.262 104.15 107.124 104.164C106.082 104.264 105.403 103.525 104.455 103.39C103.136 103.199 102.86 103.965 101.698 104.583C99.8708 105.556 98.9853 104.952 98.6399 103.546V103.575Z" fill="#EBEBEB"/>
<path d="M101.378 112.286C101.378 112.286 105.165 118.335 106.465 120.252C107.771 122.169 114.296 134.119 115.181 142.021C115.276 142.866 115.37 143.59 115.458 144.222C112.651 165.167 113.09 203.479 113.191 210.039H122.083C122.165 202.641 122.918 135.027 123.201 132.961C123.496 130.775 127.214 122.46 132.954 119.038C138.694 115.623 143.655 104.313 143.655 104.313H141.827C141.827 104.313 138.436 111.25 133.607 115.084C132.904 115.637 132.181 116.106 131.434 116.539C131.61 110.291 129.512 104.313 129.512 104.313L128.526 105.342C129.858 111.519 129.682 115.474 129.28 117.746C127.66 118.662 125.977 119.727 124.287 121.523C119.282 114.161 116.463 97.3193 116.463 97.3193L115.181 98.1145C115.181 98.1145 115.596 102.687 116.839 108.445C117.775 112.804 120.538 121.005 121.826 124.732C120.551 126.735 119.282 129.333 118.045 132.763C117.907 132.521 117.744 132.294 117.562 132.109C114.302 128.772 108.167 113.017 108.167 113.017C106.685 109.354 108.952 99.7404 108.952 99.7404H107.237L106.471 108.147L102.163 102.836L101.378 103.574L105.944 110.213L108.292 118.626L102.157 110.951L101.372 112.279L101.378 112.286Z" fill="#E6E6E6"/>
<path d="M253.743 142.234C253.812 141.957 253.85 141.645 253.869 141.297C253.969 139.352 255.615 139.664 257.009 139.394C258.102 139.188 255.213 136.071 257.411 135.07C257.819 134.886 258.265 134.673 258.472 134.233C258.748 133.65 258.472 132.891 257.995 132.507C257.518 132.124 256.908 132.046 256.324 132.032C255.966 131.542 256.255 130.796 256.607 130.292C256.952 129.788 257.379 129.213 257.248 128.595C257.047 127.658 255.891 127.623 255.05 127.807C254.742 127.239 254.748 126.529 254.597 125.89C254.447 125.244 253.994 124.569 253.41 124.648C252.858 124.726 252.525 125.429 251.985 125.571C251.357 125.741 250.817 125.109 250.321 124.64C249.831 124.172 248.97 123.874 248.631 124.498C248.43 124.868 248.55 125.386 248.336 125.755C247.972 126.387 247.105 125.997 246.565 125.549C246.025 125.102 245.171 124.697 244.794 125.315C244.681 125.507 244.65 125.748 244.587 125.968C244.33 126.799 243.538 127.211 242.923 127.743C242.307 128.276 241.818 129.334 242.339 129.987C242.596 130.306 243.048 130.434 243.18 130.846C243.344 131.357 242.879 131.812 242.515 132.167C241.905 132.749 241.799 134.502 242.603 134.978C242.942 135.177 243.431 135.241 243.519 135.66C243.595 136.036 243.256 136.327 243.03 136.618C242.414 137.413 242.672 138.848 243.519 139.309C243.714 139.416 243.946 139.501 244.022 139.728C244.072 139.891 244.022 140.069 243.978 140.239C243.903 140.552 243.871 140.885 243.903 141.212C243.909 141.325 243.934 141.446 244.009 141.517C244.078 141.581 244.173 141.595 244.267 141.595C245.429 141.652 245.987 141.191 246.697 142.334C246.766 142.44 246.835 142.554 246.936 142.625C247.03 142.689 247.143 142.703 247.256 142.717C248.054 142.788 248.575 142.227 249.303 142.121C250.314 141.972 250.528 142.568 251.42 143.037C252.82 143.782 253.498 143.321 253.762 142.241L253.743 142.234Z" fill="#EBEBEB"/>
<path d="M240.379 140.601C240.449 140.325 240.486 140.012 240.505 139.664C240.606 137.719 242.251 138.031 243.645 137.761C244.738 137.556 241.849 134.439 244.047 133.438C244.455 133.253 244.901 133.04 245.108 132.6C245.385 132.018 245.108 131.258 244.631 130.874C244.154 130.491 243.545 130.413 242.961 130.399C242.603 129.909 242.891 129.163 243.243 128.659C243.589 128.155 244.016 127.58 243.884 126.962C243.683 126.025 242.527 125.99 241.686 126.174C241.378 125.606 241.384 124.896 241.234 124.257C241.083 123.611 240.631 122.937 240.047 123.015C239.494 123.093 239.161 123.796 238.621 123.938C237.993 124.108 237.453 123.476 236.957 123.008C236.467 122.539 235.607 122.241 235.268 122.866C235.067 123.235 235.186 123.753 234.972 124.122C234.608 124.754 233.742 124.364 233.201 123.916C232.661 123.469 231.807 123.064 231.43 123.682C231.317 123.874 231.286 124.115 231.223 124.335C230.966 125.166 230.174 125.578 229.559 126.11C228.944 126.643 228.454 127.701 228.975 128.354C229.232 128.673 229.685 128.801 229.817 129.213C229.98 129.724 229.515 130.179 229.151 130.534C228.542 131.116 228.435 132.87 229.239 133.345C229.578 133.544 230.068 133.608 230.156 134.027C230.231 134.403 229.892 134.694 229.666 134.985C229.05 135.781 229.308 137.215 230.156 137.676C230.35 137.783 230.583 137.868 230.658 138.095C230.708 138.258 230.658 138.436 230.614 138.606C230.539 138.919 230.507 139.252 230.539 139.579C230.545 139.693 230.57 139.813 230.645 139.884C230.715 139.948 230.809 139.962 230.903 139.962C232.065 140.019 232.624 139.558 233.333 140.701C233.402 140.807 233.471 140.921 233.572 140.992C233.666 141.056 233.779 141.07 233.892 141.084C234.69 141.155 235.211 140.594 235.94 140.488C236.951 140.339 237.164 140.935 238.056 141.404C239.456 142.149 240.135 141.688 240.398 140.609L240.379 140.601Z" fill="#EBEBEB"/>
<path d="M239.092 130.974C239.161 130.697 239.199 130.384 239.218 130.036C239.318 128.091 240.963 128.403 242.358 128.134C243.45 127.928 240.562 124.811 242.76 123.81C243.168 123.625 243.614 123.412 243.821 122.972C244.097 122.39 243.821 121.63 243.344 121.247C242.866 120.863 242.257 120.785 241.673 120.771C241.315 120.281 241.604 119.535 241.956 119.031C242.301 118.527 242.728 117.952 242.596 117.334C242.395 116.397 241.24 116.362 240.398 116.546C240.091 115.978 240.097 115.268 239.946 114.629C239.795 113.983 239.343 113.309 238.759 113.387C238.207 113.465 237.874 114.168 237.334 114.31C236.706 114.48 236.166 113.848 235.669 113.38C235.18 112.911 234.319 112.613 233.98 113.238C233.779 113.607 233.898 114.125 233.685 114.494C233.321 115.126 232.454 114.736 231.914 114.289C231.374 113.841 230.52 113.437 230.143 114.054C230.03 114.246 229.999 114.487 229.936 114.707C229.678 115.538 228.887 115.95 228.272 116.482C227.656 117.015 227.166 118.073 227.688 118.726C227.945 119.046 228.397 119.173 228.529 119.585C228.692 120.096 228.228 120.551 227.863 120.906C227.254 121.488 227.147 123.242 227.951 123.717C228.29 123.916 228.78 123.98 228.868 124.399C228.944 124.775 228.604 125.066 228.378 125.357C227.763 126.153 228.02 127.587 228.868 128.048C229.063 128.155 229.295 128.24 229.371 128.467C229.421 128.631 229.371 128.808 229.327 128.978C229.251 129.291 229.22 129.625 229.251 129.951C229.258 130.065 229.283 130.185 229.358 130.256C229.427 130.32 229.521 130.335 229.616 130.335C230.777 130.391 231.336 129.93 232.046 131.073C232.115 131.179 232.184 131.293 232.285 131.364C232.379 131.428 232.492 131.442 232.605 131.456C233.402 131.527 233.924 130.966 234.652 130.86C235.663 130.711 235.877 131.307 236.768 131.776C238.169 132.521 238.847 132.06 239.111 130.981L239.092 130.974Z" fill="#EBEBEB"/>
<path d="M230.294 135.767C230.363 135.49 230.401 135.177 230.419 134.829C230.52 132.884 232.165 133.196 233.559 132.927C234.652 132.721 231.763 129.604 233.961 128.603C234.37 128.418 234.815 128.205 235.023 127.765C235.299 127.183 235.023 126.423 234.545 126.04C234.068 125.656 233.459 125.578 232.875 125.564C232.517 125.074 232.806 124.328 233.157 123.824C233.503 123.32 233.93 122.745 233.798 122.127C233.597 121.19 232.442 121.155 231.6 121.339C231.292 120.771 231.299 120.061 231.148 119.422C230.997 118.776 230.545 118.102 229.961 118.18C229.408 118.258 229.075 118.961 228.535 119.103C227.907 119.273 227.367 118.641 226.871 118.173C226.381 117.704 225.521 117.406 225.182 118.031C224.981 118.4 225.1 118.918 224.887 119.287C224.522 119.919 223.656 119.529 223.116 119.082C222.576 118.634 221.722 118.23 221.345 118.847C221.232 119.039 221.2 119.28 221.138 119.5C220.88 120.331 220.089 120.743 219.473 121.275C218.858 121.808 218.368 122.866 218.889 123.519C219.147 123.839 219.599 123.966 219.731 124.378C219.894 124.889 219.429 125.344 219.065 125.699C218.456 126.281 218.349 128.035 219.153 128.51C219.492 128.709 219.982 128.773 220.07 129.192C220.145 129.568 219.806 129.859 219.58 130.15C218.965 130.946 219.222 132.38 220.07 132.841C220.265 132.948 220.497 133.033 220.572 133.26C220.623 133.424 220.572 133.601 220.528 133.764C220.453 134.077 220.422 134.41 220.453 134.737C220.459 134.851 220.484 134.971 220.56 135.042C220.629 135.106 220.723 135.12 220.817 135.12C221.979 135.177 222.538 134.716 223.248 135.859C223.317 135.965 223.386 136.079 223.486 136.15C223.58 136.214 223.694 136.228 223.807 136.242C224.604 136.313 225.125 135.752 225.854 135.646C226.865 135.497 227.078 136.093 227.97 136.562C229.371 137.307 230.049 136.846 230.313 135.767H230.294Z" fill="#EBEBEB"/>
<path d="M221.395 133.559C221.464 133.282 221.502 132.969 221.521 132.621C221.621 130.676 223.266 130.988 224.661 130.719C225.753 130.513 222.865 127.396 225.063 126.395C225.471 126.21 225.917 125.997 226.124 125.557C226.4 124.975 226.124 124.215 225.647 123.832C225.169 123.448 224.56 123.37 223.976 123.356C223.618 122.866 223.907 122.12 224.259 121.616C224.604 121.112 225.031 120.537 224.899 119.919C224.698 118.982 223.543 118.947 222.701 119.131C222.394 118.563 222.4 117.853 222.249 117.214C222.098 116.568 221.646 115.894 221.062 115.972C220.51 116.05 220.177 116.753 219.637 116.895C219.009 117.065 218.469 116.433 217.972 115.965C217.483 115.496 216.622 115.198 216.283 115.823C216.082 116.192 216.201 116.71 215.988 117.079C215.624 117.711 214.757 117.321 214.217 116.874C213.677 116.426 212.823 116.022 212.446 116.639C212.333 116.831 212.302 117.072 212.239 117.292C211.981 118.123 211.19 118.535 210.575 119.067C209.959 119.6 209.469 120.658 209.991 121.311C210.248 121.631 210.7 121.758 210.832 122.17C210.995 122.681 210.531 123.136 210.166 123.491C209.557 124.073 209.45 125.827 210.254 126.302C210.593 126.501 211.09 126.565 211.171 126.984C211.247 127.36 210.907 127.651 210.681 127.942C210.066 128.738 210.323 130.172 211.171 130.633C211.366 130.74 211.598 130.825 211.674 131.052C211.724 131.216 211.674 131.393 211.63 131.556C211.554 131.869 211.523 132.202 211.554 132.529C211.561 132.643 211.586 132.763 211.661 132.834C211.73 132.898 211.824 132.912 211.918 132.912C213.08 132.969 213.639 132.508 214.349 133.651C214.418 133.757 214.487 133.871 214.587 133.942C214.682 134.006 214.795 134.02 214.908 134.034C215.705 134.105 216.227 133.544 216.955 133.438C217.966 133.289 218.18 133.885 219.071 134.354C220.472 135.099 221.15 134.638 221.414 133.559H221.395Z" fill="#EBEBEB"/>
<path d="M221.276 144.314C221.326 144.101 221.357 143.853 221.376 143.576C221.458 142.042 222.752 142.291 223.851 142.078C224.711 141.914 222.438 139.465 224.165 138.67C224.485 138.521 224.837 138.357 225 138.009C225.22 137.555 225 136.952 224.623 136.653C224.246 136.355 223.769 136.291 223.31 136.277C223.028 135.887 223.26 135.304 223.53 134.907C223.807 134.509 224.139 134.062 224.033 133.572C223.876 132.834 222.965 132.805 222.306 132.947C222.061 132.5 222.067 131.946 221.948 131.435C221.828 130.931 221.47 130.398 221.012 130.462C220.579 130.519 220.315 131.073 219.888 131.186C219.392 131.321 218.965 130.824 218.582 130.455C218.192 130.086 217.514 129.852 217.25 130.341C217.093 130.633 217.187 131.037 217.018 131.328C216.729 131.825 216.051 131.52 215.624 131.165C215.203 130.81 214.525 130.491 214.23 130.98C214.135 131.13 214.117 131.321 214.066 131.492C213.865 132.145 213.244 132.471 212.754 132.89C212.264 133.309 211.881 134.147 212.295 134.658C212.496 134.914 212.854 135.013 212.955 135.333C213.08 135.737 212.716 136.092 212.427 136.369C211.95 136.831 211.862 138.208 212.496 138.585C212.76 138.741 213.149 138.79 213.219 139.124C213.275 139.422 213.011 139.65 212.835 139.877C212.352 140.502 212.553 141.63 213.219 141.993C213.369 142.078 213.558 142.142 213.614 142.319C213.652 142.447 213.614 142.589 213.576 142.717C213.514 142.965 213.495 143.228 213.514 143.484C213.52 143.569 213.539 143.668 213.595 143.725C213.652 143.775 213.727 143.789 213.796 143.789C214.707 143.831 215.153 143.469 215.705 144.371C215.762 144.456 215.812 144.549 215.894 144.598C215.969 144.648 216.057 144.662 216.145 144.669C216.773 144.726 217.181 144.286 217.759 144.201C218.557 144.087 218.726 144.549 219.423 144.925C220.528 145.514 221.062 145.152 221.269 144.3L221.276 144.314Z" fill="#EBEBEB"/>
<path d="M216.289 140.601C216.358 140.325 216.396 140.012 216.415 139.664C216.515 137.719 218.161 138.031 219.555 137.761C220.648 137.556 217.759 134.439 219.957 133.438C220.365 133.253 220.811 133.04 221.018 132.6C221.295 132.018 221.018 131.258 220.541 130.874C220.064 130.491 219.455 130.413 218.87 130.399C218.513 129.909 218.801 129.163 219.153 128.659C219.498 128.155 219.926 127.58 219.794 126.962C219.593 126.025 218.437 125.99 217.596 126.174C217.288 125.606 217.294 124.896 217.143 124.257C216.993 123.611 216.541 122.937 215.957 123.015C215.404 123.093 215.071 123.796 214.531 123.938C213.903 124.108 213.363 123.476 212.867 123.008C212.377 122.539 211.517 122.241 211.177 122.866C210.977 123.235 211.096 123.753 210.882 124.122C210.518 124.754 209.651 124.364 209.111 123.916C208.571 123.469 207.717 123.064 207.34 123.682C207.227 123.874 207.196 124.115 207.133 124.335C206.876 125.166 206.084 125.578 205.469 126.11C204.854 126.643 204.364 127.701 204.885 128.354C205.142 128.673 205.595 128.801 205.726 129.213C205.89 129.724 205.425 130.179 205.061 130.534C204.452 131.116 204.345 132.87 205.149 133.345C205.488 133.544 205.978 133.608 206.066 134.027C206.141 134.403 205.802 134.694 205.576 134.985C204.96 135.781 205.218 137.215 206.066 137.676C206.26 137.783 206.493 137.868 206.568 138.095C206.618 138.258 206.568 138.436 206.524 138.606C206.449 138.919 206.417 139.252 206.449 139.579C206.455 139.693 206.48 139.813 206.555 139.884C206.624 139.948 206.719 139.962 206.813 139.962C207.975 140.019 208.534 139.558 209.243 140.701C209.312 140.807 209.381 140.921 209.482 140.992C209.576 141.056 209.689 141.07 209.802 141.084C210.6 141.155 211.121 140.594 211.849 140.488C212.861 140.339 213.074 140.935 213.966 141.404C215.366 142.149 216.044 141.688 216.308 140.609L216.289 140.601Z" fill="#EBEBEB"/>
<path d="M230.294 123.931C230.363 123.654 230.401 123.341 230.419 122.993C230.52 121.048 232.165 121.36 233.559 121.091C234.652 120.885 231.763 117.768 233.961 116.767C234.37 116.582 234.815 116.369 235.023 115.929C235.299 115.347 235.023 114.587 234.545 114.204C234.068 113.82 233.459 113.742 232.875 113.728C232.517 113.238 232.806 112.492 233.157 111.988C233.503 111.484 233.93 110.909 233.798 110.291C233.597 109.354 232.442 109.319 231.6 109.503C231.292 108.935 231.299 108.225 231.148 107.586C230.997 106.94 230.545 106.266 229.961 106.344C229.408 106.422 229.075 107.125 228.535 107.267C227.907 107.437 227.367 106.805 226.871 106.337C226.381 105.868 225.521 105.57 225.182 106.195C224.981 106.564 225.1 107.082 224.887 107.451C224.522 108.083 223.656 107.693 223.116 107.246C222.576 106.798 221.722 106.394 221.345 107.011C221.232 107.203 221.2 107.444 221.138 107.664C220.88 108.495 220.089 108.907 219.473 109.439C218.858 109.972 218.368 111.03 218.889 111.683C219.147 112.003 219.599 112.13 219.731 112.542C219.894 113.053 219.429 113.508 219.065 113.863C218.456 114.445 218.349 116.199 219.153 116.674C219.492 116.873 219.982 116.937 220.07 117.356C220.145 117.732 219.806 118.023 219.58 118.314C218.965 119.11 219.222 120.544 220.07 121.005C220.265 121.112 220.497 121.197 220.572 121.424C220.623 121.588 220.572 121.765 220.528 121.935C220.453 122.248 220.422 122.582 220.453 122.908C220.459 123.022 220.484 123.142 220.56 123.213C220.629 123.277 220.723 123.292 220.817 123.292C221.979 123.348 222.538 122.887 223.248 124.03C223.317 124.136 223.386 124.25 223.486 124.321C223.58 124.385 223.694 124.399 223.807 124.413C224.604 124.484 225.125 123.923 225.854 123.817C226.865 123.668 227.078 124.264 227.97 124.733C229.371 125.478 230.049 125.017 230.313 123.938L230.294 123.931Z" fill="#EBEBEB"/>
<path d="M241.723 124.591C241.792 124.314 241.83 124.001 241.849 123.654C241.949 121.708 243.595 122.021 244.989 121.751C246.082 121.545 243.193 118.428 245.391 117.427C245.799 117.242 246.245 117.029 246.452 116.589C246.729 116.007 246.452 115.247 245.975 114.864C245.498 114.48 244.888 114.402 244.304 114.388C243.946 113.898 244.235 113.153 244.587 112.649C244.932 112.144 245.359 111.569 245.228 110.952C245.027 110.014 243.871 109.979 243.03 110.164C242.722 109.596 242.728 108.886 242.577 108.247C242.427 107.6 241.975 106.926 241.391 107.004C240.838 107.082 240.505 107.785 239.965 107.927C239.337 108.097 238.797 107.466 238.301 106.997C237.811 106.528 236.951 106.23 236.611 106.855C236.41 107.224 236.53 107.742 236.316 108.112C235.952 108.744 235.085 108.353 234.545 107.906C234.005 107.458 233.151 107.054 232.774 107.671C232.661 107.863 232.63 108.105 232.567 108.325C232.31 109.155 231.518 109.567 230.903 110.1C230.287 110.632 229.798 111.69 230.319 112.343C230.576 112.663 231.029 112.791 231.16 113.202C231.324 113.714 230.859 114.168 230.495 114.523C229.886 115.105 229.779 116.859 230.583 117.335C230.922 117.533 231.412 117.597 231.5 118.016C231.575 118.392 231.236 118.684 231.01 118.975C230.394 119.77 230.652 121.204 231.5 121.666C231.694 121.772 231.927 121.857 232.002 122.084C232.052 122.248 232.002 122.425 231.958 122.596C231.883 122.908 231.851 123.242 231.883 123.568C231.889 123.682 231.914 123.803 231.989 123.874C232.058 123.938 232.153 123.952 232.247 123.952C233.409 124.009 233.968 123.547 234.677 124.69C234.746 124.797 234.815 124.91 234.916 124.981C235.01 125.045 235.123 125.059 235.236 125.074C236.034 125.145 236.555 124.584 237.283 124.477C238.294 124.328 238.508 124.924 239.4 125.393C240.8 126.139 241.478 125.677 241.742 124.598L241.723 124.591Z" fill="#EBEBEB"/>
<path d="M248.663 129.881C248.732 129.604 248.77 129.291 248.788 128.944C248.889 126.998 250.534 127.311 251.928 127.041C253.021 126.835 250.132 123.718 252.33 122.717C252.739 122.532 253.184 122.319 253.392 121.879C253.668 121.297 253.392 120.537 252.914 120.154C252.437 119.77 251.828 119.692 251.244 119.678C250.886 119.188 251.175 118.443 251.526 117.939C251.872 117.434 252.299 116.859 252.167 116.242C251.966 115.304 250.811 115.269 249.969 115.454C249.661 114.886 249.668 114.176 249.517 113.537C249.366 112.89 248.914 112.216 248.33 112.294C247.777 112.372 247.445 113.075 246.904 113.217C246.276 113.387 245.736 112.756 245.24 112.287C244.75 111.818 243.89 111.52 243.551 112.145C243.35 112.514 243.469 113.032 243.256 113.402C242.892 114.034 242.025 113.643 241.485 113.196C240.945 112.748 240.091 112.344 239.714 112.961C239.601 113.153 239.569 113.395 239.507 113.615C239.249 114.445 238.458 114.857 237.842 115.39C237.227 115.922 236.737 116.98 237.258 117.633C237.516 117.953 237.968 118.081 238.1 118.492C238.263 119.004 237.798 119.458 237.434 119.813C236.825 120.395 236.718 122.149 237.522 122.625C237.861 122.823 238.351 122.887 238.439 123.306C238.514 123.682 238.175 123.974 237.949 124.265C237.334 125.06 237.591 126.494 238.439 126.956C238.634 127.062 238.866 127.147 238.941 127.374C238.992 127.538 238.941 127.715 238.897 127.886C238.822 128.198 238.791 128.532 238.822 128.858C238.828 128.972 238.853 129.093 238.929 129.164C238.998 129.228 239.092 129.242 239.186 129.242C240.348 129.299 240.907 128.837 241.617 129.98C241.686 130.087 241.755 130.2 241.855 130.271C241.95 130.335 242.063 130.349 242.176 130.364C242.973 130.435 243.494 129.874 244.223 129.767C245.234 129.618 245.447 130.214 246.339 130.683C247.74 131.429 248.418 130.967 248.682 129.888L248.663 129.881Z" fill="#EBEBEB"/>
<path d="M246.559 136.569C246.559 136.569 243.658 141.212 242.653 142.682C241.654 144.152 236.643 153.325 235.965 159.388C235.889 160.035 235.82 160.595 235.751 161.078C237.905 177.146 237.566 206.547 237.491 211.581H230.671C230.608 205.908 230.03 154.028 229.817 152.445C229.59 150.769 226.739 144.386 222.331 141.766C217.929 139.146 214.117 130.463 214.117 130.463H215.523C215.523 130.463 218.123 135.781 221.828 138.727C222.368 139.153 222.921 139.508 223.493 139.842C223.361 135.05 224.968 130.463 224.968 130.463L225.728 131.258C224.705 135.994 224.837 139.033 225.151 140.772C226.394 141.475 227.681 142.292 228.981 143.669C232.825 138.017 234.985 125.103 234.985 125.103L235.971 125.713C235.971 125.713 235.651 129.221 234.702 133.637C233.98 136.981 231.864 143.279 230.878 146.133C231.858 147.673 232.831 149.661 233.779 152.296C233.886 152.111 234.005 151.941 234.15 151.791C236.655 149.235 241.359 137.144 241.359 137.144C242.496 134.333 240.756 126.956 240.756 126.956H242.069L242.659 133.41L245.962 129.334L246.565 129.902L243.061 134.993L241.259 141.447L245.962 135.561L246.565 136.576L246.559 136.569Z" fill="#E6E6E6"/>
<path d="M73.3755 223.11H77.715L77.715 65.0217H73.3755L73.3755 223.11Z" fill="#E6E6E6"/>
<path d="M38.2891 223.174V232.361H267.239V223.174C267.239 221.576 266.253 220.291 264.84 220.291H40.6818C39.2688 220.291 38.2828 221.576 38.2828 223.174H38.2891Z" fill="#E0E0E0"/>
<path d="M254.189 220.291H239.953V232.361H254.189V220.291Z" fill="#F5F5F5"/>
<path d="M226.903 220.291H213.262V232.361H226.903V220.291Z" fill="#F5F5F5"/>
<path d="M200.213 220.291H185.976V232.361H200.213V220.291Z" fill="#F5F5F5"/>
<path d="M172.926 220.291H159.286V232.361H172.926V220.291Z" fill="#F5F5F5"/>
<path d="M146.236 220.291H132.596V232.361H146.236V220.291Z" fill="#F5F5F5"/>
<path d="M119.546 220.291H105.309V232.361H119.546V220.291Z" fill="#F5F5F5"/>
<path d="M92.2594 220.291H78.6193V232.361H92.2594V220.291Z" fill="#F5F5F5"/>
<path d="M65.5757 220.291H51.339V232.361H65.5757V220.291Z" fill="#F5F5F5"/>
<path d="M75.5483 89.6084C83.3729 89.6084 89.716 82.4371 89.716 73.5909C89.716 64.7446 83.3729 57.5732 75.5483 57.5732C67.7237 57.5732 61.3806 64.7446 61.3806 73.5909C61.3806 82.4371 67.7237 89.6084 75.5483 89.6084Z" fill="#E0E0E0"/>
<path d="M75.5483 86.6976C81.9509 86.6976 87.1412 80.8296 87.1412 73.591C87.1412 66.3524 81.9509 60.4844 75.5483 60.4844C69.1458 60.4844 63.9554 66.3524 63.9554 73.591C63.9554 80.8296 69.1458 86.6976 75.5483 86.6976Z" fill="#EBEBEB"/>
<path d="M69.507 79.9099L70.6688 76.9918C71.9185 78.0213 73.7774 78.7384 75.5546 78.7384C77.583 78.7384 78.412 77.9716 78.412 76.9421C78.412 73.811 69.8021 75.9622 69.8021 69.7426C69.8021 66.8955 71.8306 64.5312 76.0382 64.5312C77.897 64.5312 79.7999 65.0353 81.1752 66.0151L80.1202 68.9546C78.7448 68.0671 77.3318 67.6411 76.0193 67.6411C73.9909 67.6411 73.2059 68.5002 73.2059 69.551C73.2059 72.6324 81.8158 70.5095 81.8158 76.651C81.8158 79.4484 79.7622 81.8411 75.5358 81.8411C73.187 81.8411 70.8195 81.053 69.507 79.9028V79.9099Z" fill="#E0E0E0"/>
<path d="M157 264.553C224.248 264.553 278.763 260.955 278.763 256.516C278.763 252.077 224.248 248.479 157 248.479C89.7524 248.479 35.2373 252.077 35.2373 256.516C35.2373 260.955 89.7524 264.553 157 264.553Z" fill="#F5F5F5"/>
<path d="M167.318 35.4434H263.277C266.881 35.4434 269.808 38.752 269.808 42.8274V249.75C269.808 253.825 266.881 257.134 263.277 257.134H167.318C163.714 257.134 160.787 253.825 160.787 249.75V42.8274C160.787 38.752 163.714 35.4434 167.318 35.4434Z" fill="#171F3A"/>
<path d="M266.128 42.8701V249.317C266.128 251.014 264.922 252.334 263.421 252.334H166.885C165.503 252.334 164.467 251.127 164.467 249.565V42.6216C164.467 41.2726 165.346 40.0869 166.54 40.0869H190.674C191.358 40.0869 191.974 40.591 192.225 41.3152L193.223 44.0984C193.474 44.8155 194.096 45.3125 194.774 45.3125H235.864C236.549 45.3125 237.164 44.8368 237.416 44.1197L238.414 41.3223C238.665 40.5981 239.287 40.0869 239.965 40.0869H263.754C265.073 40.0869 266.122 41.3791 266.122 42.8701H266.128Z" fill="#99B8A7"/>
<path opacity="0.45" d="M266.128 52.9873H164.461V240.725H266.128V52.9873Z" fill="white"/>
<path opacity="0.6" d="M175.671 48.4072H176.927V46.5115H175.671V48.4072Z" fill="white"/>
<path opacity="0.6" d="M173.617 48.4072H174.873V45.8796H173.617V48.4072Z" fill="white"/>
<path opacity="0.6" d="M171.57 48.4072H172.826V45.2548H171.57V48.4072Z" fill="white"/>
<path opacity="0.6" d="M169.529 48.4004H170.785V44.6161H169.529V48.4004Z" fill="white"/>
<path opacity="0.6" d="M254.623 45.8232H253.875V47.7189H254.623V45.8232Z" fill="white"/>
<path opacity="0.6" d="M255.138 48.4082H261.066V45.1351H255.138V48.4082Z" fill="white"/>
<path opacity="0.4" d="M261.958 70.3828H168.631C167.115 70.3828 165.886 71.7719 165.886 73.4855V128.802C165.886 130.515 167.115 131.904 168.631 131.904H261.958C263.474 131.904 264.702 130.515 264.702 128.802V73.4855C264.702 71.7719 263.474 70.3828 261.958 70.3828Z" fill="white"/>
<path d="M260.796 72.002H170.339C169.077 72.002 168.053 73.159 168.053 74.5864V127.709C168.053 129.136 169.077 130.293 170.339 130.293H260.796C262.059 130.293 263.082 129.136 263.082 127.709V74.5864C263.082 73.159 262.059 72.002 260.796 72.002Z" fill="white"/>
<path d="M196.257 102.156H233.528L232.781 94.6084L222.042 92.0098L212.063 93.9765L200.043 95.3113L197.06 99.1666L196.257 102.156Z" fill="#171F3A"/>
<path opacity="0.2" d="M196.257 102.156H233.528L232.781 94.6084L222.042 92.0098L212.063 93.9765L200.043 95.3113L197.06 99.1666L196.257 102.156Z" fill="black"/>
<path d="M206.625 102.155C206.625 104.619 204.86 106.614 202.681 106.614C200.502 106.614 198.737 104.619 198.737 102.155C198.737 99.6914 200.502 97.6963 202.681 97.6963C204.86 97.6963 206.625 99.6914 206.625 102.155Z" fill="#171F3A"/>
<path opacity="0.2" d="M202.681 105.137C204.138 105.137 205.319 103.802 205.319 102.155C205.319 100.508 204.138 99.1729 202.681 99.1729C201.224 99.1729 200.043 100.508 200.043 102.155C200.043 103.802 201.224 105.137 202.681 105.137Z" fill="black"/>
<path d="M232.373 102.155C232.373 104.619 230.608 106.614 228.429 106.614C226.25 106.614 224.485 104.619 224.485 102.155C224.485 99.6914 226.25 97.6963 228.429 97.6963C230.608 97.6963 232.373 99.6914 232.373 102.155Z" fill="#171F3A"/>
<path opacity="0.2" d="M228.429 105.137C229.886 105.137 231.067 103.802 231.067 102.155C231.067 100.508 229.886 99.1729 228.429 99.1729C226.972 99.1729 225.791 100.508 225.791 102.155C225.791 103.802 226.972 105.137 228.429 105.137Z" fill="black"/>
<path d="M236.072 98.1864L235.638 101.672L233.214 102.539C233.214 102.539 233.152 96.6457 227.876 96.6457C222.601 96.6457 223.279 103.668 223.279 103.668H222.356L220.617 102.823H209.225L208.232 103.668H207.561C207.561 103.668 208.119 96.6457 202.681 96.6457C197.242 96.6457 197.933 103.668 197.933 103.668L194.825 102.155L194.517 98.6124L195.817 97.6965L196.131 95.5452C196.269 95.4245 196.414 95.3108 196.558 95.2043C200.194 92.4495 205.168 92.0804 205.168 92.0804C209.445 87.1601 211.178 86.4643 211.178 86.4643C220.993 85.6904 230.357 86.8832 230.357 86.8832L233.214 91.0224L233.886 91.6402L234.583 92.2862C235.017 94.5369 234.891 96.6457 234.891 96.6457L236.072 98.1864Z" fill="#99B8A7"/>
<path opacity="0.6" d="M199.258 95.4458L197.079 97.6965H195.817L196.131 95.5452C196.269 95.4245 196.413 95.3109 196.558 95.2044L198.141 94.9346L199.258 95.4458Z" fill="white"/>
<path opacity="0.6" d="M234.891 96.6461L234.1 96.3124C234.1 94.4451 233.108 92.5707 233.108 92.5707L233.886 91.6406L234.583 92.2867C235.017 94.5374 234.891 96.6461 234.891 96.6461Z" fill="white"/>
<path d="M233.214 91.0224C228.046 92.4211 205.168 92.0804 205.168 92.0804C205.3 91.9313 205.425 91.7822 205.557 91.6402C207.912 88.9706 209.445 87.65 210.305 87.0181C210.901 86.5707 211.178 86.4643 211.178 86.4643C220.993 85.6904 230.357 86.8832 230.357 86.8832L233.214 91.0224Z" fill="#171F3A"/>
<path opacity="0.6" d="M211.373 87.0176L207.642 91.6397H205.557C207.912 88.9701 209.445 87.6495 210.305 87.0176H211.373Z" fill="white"/>
<path opacity="0.6" d="M208.697 91.6397L211.988 87.0176H216.899L216.522 91.6397H208.697Z" fill="white"/>
<path opacity="0.6" d="M217.703 91.6397L218.136 87.0176H224.906L226.087 91.2137C226.087 91.2137 221.986 91.6468 217.703 91.6468V91.6397Z" fill="white"/>
<path opacity="0.6" d="M225.703 87.0176L226.959 91.1001C226.959 91.1001 230.935 90.8161 231.494 90.5392L229.829 87.9974C229.547 87.5643 229.088 87.3868 228.617 87.3087C226.941 87.0176 225.71 87.0176 225.71 87.0176H225.703Z" fill="white"/>
<path opacity="0.2" d="M236.072 98.1859L235.638 101.672L233.214 102.538C233.214 102.538 233.152 96.6452 227.876 96.6452C222.601 96.6452 223.279 103.667 223.279 103.667H222.356L220.617 102.822H209.225L208.232 103.667H207.561C207.561 103.667 208.119 96.6452 202.681 96.6452C197.242 96.6452 197.933 103.667 197.933 103.667L194.825 102.155L194.517 98.6119H197.079C197.079 98.6119 198.944 95.1684 203.045 95.1684C207.146 95.1684 208.465 98.6119 208.465 98.6119H221.615C221.615 98.6119 223.851 95.1187 227.142 94.9341C230.432 94.7495 232.373 96.3115 232.373 96.3115H234.1L234.891 96.6452L236.072 98.1859Z" fill="black"/>
<path d="M224.416 124.641H206.179C204.54 124.641 203.215 123.143 203.215 121.29C203.215 119.437 204.54 117.938 206.179 117.938H224.416C226.055 117.938 227.38 119.437 227.38 121.29C227.38 123.143 226.055 124.641 224.416 124.641Z" fill="#99B8A7"/>
<path d="M264.702 55.7422H165.886V68.6642H264.702V55.7422Z" fill="#99B8A7"/>
<path opacity="0.6" d="M215.279 40.3565C215.279 41.2298 214.657 41.9327 213.885 41.9327C213.112 41.9327 212.49 41.2298 212.49 40.3565C212.49 39.4832 213.112 38.7803 213.885 38.7803C214.657 38.7803 215.279 39.4832 215.279 40.3565Z" fill="white"/>
<path opacity="0.6" d="M218.105 40.3568C218.105 40.9177 217.703 41.365 217.213 41.365C216.723 41.365 216.321 40.9106 216.321 40.3568C216.321 39.803 216.723 39.3486 217.213 39.3486C217.703 39.3486 218.105 39.803 218.105 40.3568Z" fill="white"/>
<path opacity="0.4" d="M263.327 211.161H167.262C166.502 211.161 165.886 211.857 165.886 212.716V233.505C165.886 234.364 166.502 235.06 167.262 235.06H263.327C264.087 235.06 264.702 234.364 264.702 233.505V212.716C264.702 211.857 264.087 211.161 263.327 211.161Z" fill="white"/>
<path d="M254.146 213.397H189.581C187.697 213.397 186.165 215.13 186.165 217.26C186.165 219.39 187.697 221.122 189.581 221.122H254.146C256.036 221.122 257.562 219.39 257.562 217.26C257.562 215.13 256.03 213.397 254.146 213.397Z" fill="white"/>
<path d="M254.146 224.517H189.581C187.697 224.517 186.165 226.249 186.165 228.379C186.165 230.509 187.697 232.241 189.581 232.241H254.146C256.036 232.241 257.562 230.509 257.562 228.379C257.562 226.249 256.03 224.517 254.146 224.517Z" fill="white"/>
<path d="M169.14 215.166C169.422 215.116 169.786 215.088 170.176 215.088C170.816 215.088 171.237 215.216 171.564 215.5C171.915 215.798 172.135 216.266 172.135 216.941C172.135 217.672 171.896 218.176 171.57 218.489C171.212 218.822 170.672 218.986 170.006 218.986C169.611 218.986 169.328 218.957 169.14 218.929V215.173V215.166ZM169.906 218.29C169.968 218.304 170.075 218.304 170.169 218.304C170.86 218.304 171.312 217.878 171.312 216.962C171.312 216.167 170.904 215.748 170.245 215.748C170.075 215.748 169.962 215.762 169.899 215.784V218.29H169.906Z" fill="black"/>
<path d="M173.203 217.828C173.228 218.183 173.542 218.354 173.893 218.354C174.157 218.354 174.364 218.311 174.572 218.24L174.672 218.822C174.421 218.936 174.113 218.993 173.78 218.993C172.945 218.993 172.468 218.446 172.468 217.58C172.468 216.877 172.857 216.096 173.711 216.096C174.503 216.096 174.804 216.792 174.804 217.48C174.804 217.63 174.791 217.757 174.779 217.821H173.196L173.203 217.828ZM174.101 217.239C174.101 217.026 174.019 216.678 173.667 216.678C173.347 216.678 173.215 217.005 173.196 217.239H174.101ZM174.521 214.96L173.906 215.826H173.378L173.812 214.96H174.521Z" fill="black"/>
<path d="M175.269 217.098C175.269 216.735 175.256 216.423 175.25 216.167H175.916L175.953 216.551H175.966C176.148 216.253 176.431 216.104 176.782 216.104C177.322 216.104 177.8 216.629 177.8 217.516C177.8 218.525 177.234 219 176.682 219C176.387 219 176.154 218.865 176.041 218.681H176.029V220.058H175.263V217.09L175.269 217.098ZM176.035 217.751C176.035 217.822 176.035 217.879 176.048 217.935C176.098 218.17 176.274 218.347 176.493 218.347C176.826 218.347 177.021 218.035 177.021 217.566C177.021 217.126 176.845 216.792 176.506 216.792C176.292 216.792 176.098 216.977 176.048 217.232C176.035 217.275 176.035 217.332 176.035 217.389V217.772V217.751Z" fill="black"/>
<path d="M179.665 218.936L179.621 218.66H179.608C179.445 218.88 179.194 219 178.905 219C178.409 219 178.114 218.589 178.114 218.148C178.114 217.424 178.685 217.083 179.552 217.083V217.041C179.552 216.892 179.483 216.686 179.106 216.686C178.855 216.686 178.591 216.785 178.428 216.899L178.289 216.345C178.459 216.238 178.798 216.104 179.244 216.104C180.06 216.104 180.324 216.65 180.324 217.303V218.269C180.324 218.539 180.337 218.794 180.362 218.944H179.671L179.665 218.936ZM179.577 217.623C179.175 217.623 178.861 217.722 178.861 218.063C178.861 218.283 178.993 218.39 179.162 218.39C179.351 218.39 179.508 218.248 179.558 218.07C179.571 218.028 179.571 217.971 179.571 217.921V217.623H179.577Z" fill="black"/>
<path d="M180.921 217.076C180.921 216.664 180.908 216.401 180.902 216.16H181.561L181.586 216.671H181.605C181.731 216.266 182.032 216.096 182.271 216.096C182.34 216.096 182.378 216.096 182.434 216.11V216.919C182.378 216.905 182.315 216.898 182.227 216.898C181.944 216.898 181.756 217.068 181.706 217.338C181.693 217.395 181.693 217.466 181.693 217.53V218.936H180.927V217.076H180.921Z" fill="black"/>
<path d="M183.791 215.372V216.167H184.337V216.806H183.791V217.814C183.791 218.148 183.86 218.304 184.092 218.304C184.186 218.304 184.262 218.29 184.318 218.283V218.936C184.224 218.979 184.042 219.007 183.828 219.007C183.584 219.007 183.376 218.908 183.257 218.766C183.119 218.603 183.043 218.333 183.043 217.942V216.806H182.717V216.167H183.043V215.564L183.791 215.372Z" fill="black"/>
<path d="M170.911 229.075L170.672 230.054H169.881L170.917 226.228H171.922L172.97 230.054H172.148L171.884 229.075H170.917H170.911ZM171.771 228.429L171.557 227.619C171.495 227.392 171.438 227.108 171.388 226.881H171.375C171.325 227.108 171.275 227.399 171.218 227.619L171.017 228.429H171.765H171.771Z" fill="black"/>
<path d="M173.366 228.195C173.366 227.783 173.353 227.52 173.347 227.279H174.007L174.032 227.79H174.051C174.176 227.385 174.478 227.215 174.716 227.215C174.785 227.215 174.823 227.215 174.879 227.229V228.038C174.823 228.024 174.76 228.017 174.672 228.017C174.39 228.017 174.201 228.188 174.151 228.457C174.138 228.514 174.138 228.585 174.138 228.649V230.055H173.372V228.195H173.366Z" fill="black"/>
<path d="M175.275 228.195C175.275 227.783 175.263 227.52 175.256 227.279H175.916L175.941 227.79H175.96C176.085 227.385 176.387 227.215 176.625 227.215C176.694 227.215 176.732 227.215 176.789 227.229V228.038C176.732 228.024 176.669 228.017 176.581 228.017C176.299 228.017 176.11 228.188 176.06 228.457C176.048 228.514 176.048 228.585 176.048 228.649V230.055H175.281V228.195H175.275Z" fill="black"/>
<path d="M177.969 226.512C177.969 226.753 177.806 226.945 177.555 226.945C177.304 226.945 177.153 226.753 177.159 226.512C177.159 226.263 177.316 226.071 177.561 226.071C177.806 226.071 177.963 226.256 177.969 226.512ZM177.178 230.062V227.285H177.944V230.062H177.178Z" fill="black"/>
<path d="M179.125 227.278L179.458 228.571C179.52 228.805 179.564 229.025 179.596 229.245H179.608C179.646 229.018 179.69 228.805 179.747 228.571L180.061 227.278H180.864L179.947 230.054H179.181L178.29 227.278H179.119H179.125Z" fill="black"/>
<path d="M181.737 228.947C181.762 229.302 182.076 229.472 182.428 229.472C182.692 229.472 182.899 229.429 183.106 229.358L183.207 229.941C182.956 230.054 182.648 230.111 182.315 230.111C181.48 230.111 181.002 229.564 181.002 228.698C181.002 227.995 181.392 227.214 182.246 227.214C183.037 227.214 183.339 227.91 183.339 228.599C183.339 228.748 183.326 228.876 183.313 228.939H181.731L181.737 228.947ZM182.635 228.357C182.635 228.144 182.554 227.796 182.202 227.796C181.882 227.796 181.75 228.123 181.731 228.357H182.635ZM183.056 226.078L182.441 226.944H181.913L182.346 226.078H183.056Z" fill="black"/>
<path d="M190.046 65.1506V58.4482H191.609L192.84 60.9048C193.192 61.6077 193.544 62.4455 193.807 63.2052H193.832C193.745 62.3177 193.719 61.416 193.719 60.4078V58.4482H194.95V65.1506H193.544L192.275 62.5662C191.923 61.8491 191.534 60.9829 191.245 60.2019H191.22C191.258 61.0965 191.27 62.0408 191.27 63.1342V65.1506H190.039H190.046Z" fill="#F4F4FB"/>
<path d="M200.288 62.6647C200.288 64.4468 199.17 65.2633 198.021 65.2633C196.765 65.2633 195.798 64.3261 195.798 62.757C195.798 61.1879 196.715 60.1797 198.097 60.1797C199.478 60.1797 200.295 61.2021 200.295 62.6647H200.288ZM197.173 62.7144C197.173 63.5522 197.481 64.177 198.053 64.177C198.574 64.177 198.907 63.5877 198.907 62.7144C198.907 61.9902 198.662 61.2518 198.053 61.2518C197.412 61.2518 197.173 61.9973 197.173 62.7144Z" fill="#F4F4FB"/>
<path d="M201.117 61.8416C201.117 61.2381 201.098 60.7198 201.08 60.2867H202.204L202.266 60.9399H202.292C202.474 60.6346 202.857 60.1731 203.592 60.1731C204.144 60.1731 204.584 60.4926 204.772 60.9967H204.791C204.948 60.7482 205.143 60.5494 205.344 60.4074C205.582 60.2512 205.846 60.166 206.16 60.166C206.989 60.166 207.611 60.8192 207.611 62.2747V65.136H206.311V62.4877C206.311 61.7848 206.11 61.373 205.677 61.373C205.369 61.373 205.149 61.6144 205.061 61.8984C205.023 62.0049 205.011 62.1682 205.011 62.2889V65.136H203.711V62.4096C203.711 61.7919 203.516 61.373 203.095 61.373C202.75 61.373 202.549 61.6712 202.474 61.9197C202.43 62.0404 202.423 62.1753 202.423 62.296V65.1289H201.124V61.8203L201.117 61.8416Z" fill="#F4F4FB"/>
<path d="M211.567 65.1506L209.664 58.4482H211.134L211.856 61.2811C212.057 62.0763 212.245 62.8431 212.384 63.6809H212.409C212.559 62.8786 212.742 62.0834 212.942 61.3166L213.696 58.4553H215.122L213.125 65.1577H211.561L211.567 65.1506Z" fill="#F4F4FB"/>
<path d="M216.378 63.2048C216.422 63.8296 216.968 64.1278 217.59 64.1278C218.048 64.1278 218.419 64.0568 218.777 63.929L218.952 64.9514C218.513 65.1502 217.973 65.2496 217.395 65.2496C215.932 65.2496 215.097 64.2982 215.097 62.7717C215.097 61.5363 215.775 60.1731 217.269 60.1731C218.657 60.1731 219.185 61.3943 219.185 62.6013C219.185 62.8569 219.16 63.0912 219.141 63.1977H216.371L216.378 63.2048ZM217.954 62.1682C217.954 61.799 217.816 61.1813 217.2 61.1813C216.635 61.1813 216.409 61.7564 216.371 62.1682H217.954ZM218.695 58.1709L217.621 59.6832H216.698L217.452 58.1709H218.695Z" fill="#F4F4FB"/>
<path d="M219.989 58.0928H221.326V60.8689H221.345C221.483 60.663 221.659 60.4997 221.873 60.3719C222.067 60.2512 222.319 60.1802 222.57 60.1802C223.424 60.1802 224.077 60.8476 224.077 62.3102V65.1573H222.739V62.4806C222.739 61.8416 222.545 61.4085 222.042 61.4085C221.691 61.4085 221.471 61.6641 221.377 61.9339C221.339 62.0333 221.333 62.1611 221.333 62.2747V65.1573H219.995V58.0928H219.989Z" fill="#F4F4FB"/>
<path d="M226.526 58.9377C226.526 59.3566 226.243 59.6903 225.804 59.6903C225.364 59.6903 225.101 59.3495 225.107 58.9377C225.101 58.4975 225.377 58.1709 225.81 58.1709C226.243 58.1709 226.514 58.4975 226.52 58.9377H226.526ZM225.144 65.1502V60.2867H226.482V65.1502H225.144Z" fill="#F4F4FB"/>
<path d="M230.778 65.0368C230.539 65.1575 230.093 65.2569 229.584 65.2569C228.197 65.2569 227.305 64.3055 227.305 62.7719C227.305 61.3519 228.165 60.1875 229.767 60.1875C230.118 60.1875 230.508 60.2585 230.784 60.3792L230.57 61.501C230.413 61.4229 230.175 61.3519 229.823 61.3519C229.12 61.3519 228.661 61.9199 228.674 62.7151C228.674 63.6097 229.201 64.0783 229.854 64.0783C230.168 64.0783 230.42 64.0215 230.621 63.9292L230.778 65.0439V65.0368Z" fill="#F4F4FB"/>
<path d="M235.576 63.5886C235.576 64.2276 235.594 64.7388 235.613 65.1506H234.451L234.389 64.4619H234.363C234.194 64.7601 233.792 65.2571 233.02 65.2571C232.147 65.2571 231.506 64.6394 231.506 63.1413V60.2871H232.85V62.8999C232.85 63.6028 233.051 64.0359 233.516 64.0359C233.886 64.0359 234.093 63.7448 234.181 63.5105C234.219 63.4182 234.225 63.3046 234.225 63.1839V60.2871H235.569V63.5886H235.576Z" fill="#F4F4FB"/>
<path d="M236.643 58.0928H237.981V65.1573H236.643V58.0928Z" fill="#F4F4FB"/>
<path d="M240.091 63.2046C240.135 63.8294 240.681 64.1276 241.303 64.1276C241.761 64.1276 242.132 64.0566 242.49 63.9288L242.666 64.9511C242.226 65.1499 241.692 65.2494 241.108 65.2494C239.645 65.2494 238.81 64.298 238.81 62.7715C238.81 61.5361 239.488 60.1729 240.983 60.1729C242.371 60.1729 242.898 61.3941 242.898 62.6011C242.898 62.8567 242.873 63.091 242.854 63.1975H240.085L240.091 63.2046ZM241.667 62.1679C241.667 61.7987 241.529 61.1811 240.914 61.1811C240.348 61.1811 240.122 61.7561 240.085 62.1679H241.667Z" fill="#F4F4FB"/>
<path opacity="0.4" d="M262.925 133.033H166.86C166.1 133.033 165.484 133.729 165.484 134.588V155.377C165.484 156.236 166.1 156.932 166.86 156.932H262.925C263.685 156.932 264.3 156.236 264.3 155.377V134.588C264.3 133.729 263.685 133.033 262.925 133.033Z" fill="white"/>
<path d="M257.932 139.025H172.663C170.512 139.025 168.769 140.996 168.769 143.427V146.537C168.769 148.968 170.512 150.939 172.663 150.939H257.932C260.083 150.939 261.826 148.968 261.826 146.537V143.427C261.826 140.996 260.083 139.025 257.932 139.025Z" fill="white"/>
<path opacity="0.4" d="M262.925 158.792H166.86C166.1 158.792 165.484 159.488 165.484 160.347V181.136C165.484 181.994 166.1 182.691 166.86 182.691H262.925C263.685 182.691 264.3 181.994 264.3 181.136V160.347C264.3 159.488 263.685 158.792 262.925 158.792Z" fill="white"/>
<path d="M257.932 164.784H172.663C170.512 164.784 168.769 166.755 168.769 169.186V172.296C168.769 174.727 170.512 176.698 172.663 176.698H257.932C260.083 176.698 261.826 174.727 261.826 172.296V169.186C261.826 166.755 260.083 164.784 257.932 164.784Z" fill="white"/>
<path opacity="0.4" d="M263.164 184.983H167.098C166.339 184.983 165.723 185.68 165.723 186.538V207.327C165.723 208.186 166.339 208.882 167.098 208.882H263.164C263.923 208.882 264.539 208.186 264.539 207.327V186.538C264.539 185.68 263.923 184.983 263.164 184.983Z" fill="white"/>
<path d="M258.171 190.976H172.901C170.751 190.976 169.008 192.946 169.008 195.378V198.487C169.008 200.919 170.751 202.889 172.901 202.889H258.171C260.321 202.889 262.065 200.919 262.065 198.487V195.378C262.065 192.946 260.321 190.976 258.171 190.976Z" fill="white"/>
<path d="M129.198 203.003H125.474V257.14H129.198V203.003Z" fill="#263238"/>
<path opacity="0.2" d="M129.198 203.003H125.474V257.14H129.198V203.003Z" fill="black"/>
<path d="M155.832 203.003H152.108V257.14H155.832V203.003Z" fill="#263238"/>
<path opacity="0.2" d="M155.832 203.003H152.108V257.14H155.832V203.003Z" fill="black"/>
<path d="M93.685 203.003H89.9609V257.14H93.685V203.003Z" fill="#263238"/>
<path d="M67.0516 203.003H63.3275V257.14H67.0516V203.003Z" fill="#263238"/>
<path d="M163.456 201V205.005C163.456 205.651 163.085 206.176 162.614 206.176H59.8044C59.3397 206.176 58.9629 205.651 58.9629 205.005V201C58.9629 200.361 59.3397 199.836 59.8044 199.836H162.614C163.079 199.836 163.456 200.361 163.456 201Z" fill="#263238"/>
<path opacity="0.1" d="M163.456 201V205.005C163.456 205.651 163.085 206.176 162.614 206.176H59.8044C59.3397 206.176 58.9629 205.651 58.9629 205.005V201C58.9629 200.361 59.3397 199.836 59.8044 199.836H162.614C163.079 199.836 163.456 200.361 163.456 201Z" fill="white"/>
<path opacity="0.2" d="M87.989 201V205.005C87.989 205.651 87.6185 206.176 87.1475 206.176H59.8044C59.3397 206.176 58.9629 205.651 58.9629 205.005V201C58.9629 200.361 59.3397 199.836 59.8044 199.836H87.1475C87.6123 199.836 87.989 200.361 87.989 201Z" fill="white"/>
<path d="M129.845 138.471C129.845 138.471 129.757 138.428 130.128 138.535C130.216 138.556 129.613 141.943 129.707 141.971C129.738 141.978 130.291 137.974 131.271 137.505C131.384 137.448 131.729 137.576 131.729 137.718C131.729 138.726 130.41 142.085 130.586 142.163C130.649 142.191 131.246 139.557 131.679 138.833C131.999 138.3 132.087 139.166 132.1 139.344C132.213 140.622 131.265 143.817 130.85 144.278C130.429 144.747 129.424 145.315 129.424 145.315L130.027 151.513L126.818 152.451L126.774 145.848C126.774 145.848 125.65 143.909 126.46 141.999C127.27 140.097 129.845 138.471 129.845 138.471Z" fill="#EBB376"/>
<path opacity="0.1" d="M129.845 138.471C129.845 138.471 129.757 138.428 130.128 138.535C130.216 138.556 129.613 141.943 129.707 141.971C129.738 141.978 130.291 137.974 131.271 137.505C131.384 137.448 131.729 137.576 131.729 137.718C131.729 138.726 130.41 142.085 130.586 142.163C130.649 142.191 131.246 139.557 131.679 138.833C131.999 138.3 132.087 139.166 132.1 139.344C132.213 140.622 131.265 143.817 130.85 144.278C130.429 144.747 129.424 145.315 129.424 145.315L130.027 151.513L126.818 152.451L126.774 145.848C126.774 145.848 125.65 143.909 126.46 141.999C127.27 140.097 129.845 138.471 129.845 138.471Z" fill="black"/>
<path d="M121.317 139.202C123.44 140.92 124.25 150.413 125.085 151.79C125.92 153.168 126.774 145.848 126.774 145.848L130.593 145.826C130.593 145.826 131.12 154.588 128.652 158.599C126.19 162.618 121.637 159.636 119.062 153.189C116.488 146.742 121.317 139.202 121.317 139.202Z" fill="#407BFF"/>
<path d="M128.646 158.606C128.087 159.508 127.428 160.062 126.705 160.296C124.231 161.098 121.047 158.187 119.056 153.196C118.416 151.584 118.227 149.894 118.322 148.276C118.604 143.448 121.317 139.209 121.317 139.209C123.44 140.927 124.25 150.42 125.085 151.804C125.927 153.182 126.774 145.862 126.774 145.862L130.593 145.84C130.593 145.84 131.114 154.602 128.652 158.613L128.646 158.606Z" fill="url(#paint0_linear_502_70246)"/>
<path d="M149.225 251.134L153.464 249.82L152.704 238.141L148.478 239.461L149.225 251.134Z" fill="#EBB376"/>
<path d="M153.722 249.188L148.811 249.571C148.641 249.571 148.503 249.734 148.509 249.933L148.541 254.349C148.572 254.825 148.937 255.194 149.357 255.166C151.072 255.002 151.882 254.825 154.042 254.633C155.367 254.527 157.999 254.456 159.795 253.98C161.591 253.511 161.126 251.516 160.335 251.538C158.444 251.573 155.801 250.402 154.501 249.401C154.275 249.23 154.004 249.152 153.728 249.173L153.722 249.188Z" fill="#263238"/>
<path d="M155.323 249.905C154.928 249.927 154.532 249.898 154.143 249.82C154.105 249.82 154.067 249.785 154.061 249.742C154.055 249.699 154.061 249.65 154.092 249.621C154.224 249.501 155.411 248.45 155.958 248.641C156.083 248.691 156.184 248.805 156.215 248.954C156.303 249.174 156.265 249.43 156.127 249.607C155.901 249.82 155.612 249.927 155.317 249.912L155.323 249.905ZM155.901 248.876C155.606 248.769 154.903 249.245 154.419 249.65C155.21 249.763 155.788 249.692 155.976 249.444C156.058 249.323 156.077 249.167 156.027 249.025C156.014 248.954 155.964 248.897 155.901 248.876Z" fill="#407BFF"/>
<path d="M154.168 249.819C154.168 249.819 154.143 249.834 154.124 249.827C154.092 249.812 154.073 249.777 154.061 249.741C154.061 249.699 153.866 248.265 154.274 247.746C154.387 247.611 154.538 247.54 154.701 247.555C154.884 247.547 155.041 247.682 155.091 247.874C155.223 248.407 154.632 249.493 154.218 249.819C154.199 249.827 154.18 249.827 154.161 249.819H154.168ZM154.651 247.803C154.57 247.803 154.494 247.853 154.438 247.924C154.193 248.229 154.212 249.053 154.249 249.514C154.601 249.124 154.972 248.307 154.902 247.952C154.89 247.888 154.846 247.81 154.701 247.803H154.651Z" fill="#407BFF"/>
<path opacity="0.2" d="M148.478 239.461L152.704 238.147L153.138 244.821L148.886 245.894L148.478 239.461Z" fill="black"/>
<path d="M143.693 250.963L139.692 253.029L138.675 248.173L137.306 241.633L141.294 239.567L142.663 246.099L143.693 250.963Z" fill="#EBB376"/>
<path opacity="0.2" d="M142.663 246.099L138.675 248.173L137.306 241.633L141.294 239.567L142.663 246.099Z" fill="black"/>
<path d="M143.856 250.296L139.058 251.56C138.889 251.595 138.775 251.78 138.807 251.971L139.46 256.331C139.554 256.799 139.969 257.091 140.383 256.991C142.054 256.515 142.826 256.196 144.93 255.621C146.224 255.273 148.811 254.733 150.519 253.945C152.227 253.157 151.486 251.276 150.707 251.439C148.849 251.815 146.073 251.134 144.647 250.381C144.396 250.253 144.12 250.225 143.856 250.296Z" fill="#263238"/>
<path d="M145.539 250.714C145.15 250.806 144.76 250.849 144.365 250.842C144.327 250.842 144.289 250.82 144.27 250.778C144.258 250.735 144.264 250.686 144.283 250.65C144.396 250.508 145.413 249.251 145.991 249.344C146.123 249.365 146.236 249.464 146.286 249.606C146.399 249.805 146.406 250.061 146.293 250.267C146.098 250.515 145.834 250.679 145.539 250.714ZM145.966 249.592C145.658 249.542 145.037 250.132 144.61 250.622C145.407 250.593 145.966 250.416 146.123 250.139C146.186 250.004 146.18 249.848 146.11 249.72C146.085 249.649 146.029 249.599 145.966 249.592Z" fill="#407BFF"/>
<path d="M144.383 250.835C144.383 250.835 144.358 250.857 144.346 250.857C144.314 250.842 144.289 250.821 144.27 250.786C144.264 250.743 143.875 249.366 144.201 248.776C144.289 248.627 144.434 248.528 144.597 248.506C144.773 248.464 144.955 248.57 145.03 248.755C145.231 249.252 144.804 250.438 144.44 250.828C144.421 250.842 144.402 250.842 144.383 250.842V250.835ZM144.572 248.755C144.49 248.776 144.421 248.833 144.383 248.911C144.183 249.259 144.314 250.061 144.421 250.516C144.716 250.068 144.968 249.195 144.848 248.861C144.823 248.798 144.773 248.727 144.628 248.748H144.578L144.572 248.755Z" fill="#407BFF"/>
<path d="M114.045 184.613L112.757 168.468L88.9123 169.1C88.9123 169.1 86.0863 191.592 88.1398 195.725C91.8011 203.102 115.841 198.913 121.462 199.544C123.754 200.929 137.538 252.17 137.538 252.17L145.187 249.585C145.187 249.585 135.522 204.969 133.839 197.656C131.497 187.482 121.945 187.659 114.051 184.613H114.045Z" fill="#A0C6B1"/>
<path opacity="0.6" d="M114.045 184.613L112.757 168.468L88.9123 169.1C88.9123 169.1 86.0863 191.592 88.1398 195.725C91.8011 203.102 115.841 198.913 121.462 199.544C123.754 200.929 137.538 252.17 137.538 252.17L145.187 249.585C145.187 249.585 135.522 204.969 133.839 197.656C131.497 187.482 121.945 187.659 114.051 184.613H114.045Z" fill="white"/>
<path d="M154.494 249.181L148.478 249.337C148.478 249.337 140.05 200.83 139.479 200.645C138.443 200.311 135.428 199.928 133.808 199.452C122.548 196.144 94.828 190.052 94.828 190.052L105.052 178.919C105.052 178.919 151.405 185.21 152.434 197.507C152.931 203.421 154.501 249.181 154.501 249.181H154.494Z" fill="#A0C6B1"/>
<path opacity="0.6" d="M154.494 249.181L148.478 249.337C148.478 249.337 140.05 200.83 139.479 200.645C138.443 200.311 135.428 199.928 133.808 199.452C122.548 196.144 94.828 190.052 94.828 190.052L105.052 178.919C105.052 178.919 151.405 185.21 152.434 197.507C152.931 203.421 154.501 249.181 154.501 249.181H154.494Z" fill="white"/>
<path opacity="0.2" d="M138.738 200.461C138.738 200.461 135.748 199.758 134.335 199.594C134.781 199.864 132.948 193.048 131.654 191.323C129.073 187.886 118.717 186.026 115.006 185.352C111.897 184.791 101.479 183.747 101.479 183.747C101.479 183.747 113.743 182.576 127.61 186.878C134.461 189.008 138.738 200.453 138.738 200.453V200.461Z" fill="black"/>
<path d="M113.63 179.431C115.024 170.392 117.04 150.619 121.38 139.294C119.094 138.201 116.745 137.299 114.346 136.596C110.842 135.524 107.288 134.679 103.702 134.069C101.221 133.77 98.7216 133.692 96.2284 133.834C96.2284 133.834 91.33 139.798 87.135 182.76L113.63 179.431Z" fill="url(#paint1_linear_502_70246)"/>
<path d="M125.255 140.594C125.198 140.842 125.336 141.076 125.562 141.112L129.613 141.751C129.839 141.786 130.071 141.616 130.128 141.36L132.15 132.464C132.207 132.216 132.075 131.917 131.849 131.882L127.798 131.243C127.572 131.207 127.333 131.442 127.277 131.69L125.255 140.586V140.594Z" fill="#263238"/>
<path opacity="0.5" d="M127.735 131.712L125.688 140.693C125.631 140.949 125.726 141.14 125.952 141.176L129.387 141.723C129.619 141.758 130.059 141.68 130.115 141.431L132.163 132.422C132.219 132.166 131.855 131.903 131.622 131.861L128.187 131.314C127.961 131.278 127.785 131.463 127.729 131.712H127.735Z" fill="white"/>
<path d="M118.673 144.506L121.895 142.624C121.895 142.624 123.176 138.797 123.484 138.428C123.791 138.059 128.533 137.945 129.72 138.222C129.921 138.272 129.864 138.946 129.663 138.982C128.803 139.131 125.525 139.458 125.525 139.458C125.525 139.458 128.834 139.259 129.33 139.33C129.607 139.372 129.305 140.111 128.972 140.274C128.326 140.601 125.726 140.92 125.713 140.949C125.663 141.034 128.665 140.43 129.041 140.615C129.343 140.757 128.753 141.524 128.426 141.566C127.905 141.63 126.291 141.765 126.266 141.794C126.215 141.857 128.219 141.73 128.206 141.829C128.181 142.085 127.811 142.39 127.616 142.596C127.22 143.001 125.814 142.539 125.299 142.766C125.035 142.887 124.884 143.49 124.721 143.711C124.043 144.634 121.078 146.622 121.078 146.622L118.661 144.506H118.673Z" fill="#EBB376"/>
<path d="M109.63 123.923C108.675 127.807 106.421 134.637 103.187 135.759C103.187 135.759 105.567 140.168 109.134 140.537C111.401 140.771 112.657 137.874 112.657 137.874C110.346 137.384 111.225 135.467 113.053 133.068L109.63 123.93V123.923Z" fill="#EBB376"/>
<path opacity="0.2" d="M111.024 127.65L113.046 133.061C112.613 133.614 112.224 134.211 111.884 134.843C109.611 135.034 107.978 130.959 108.537 129.305C108.738 128.623 110.622 128.204 111.03 127.65H111.024Z" fill="black"/>
<path d="M117.486 117.724C115.32 118.74 115.734 121.416 119.326 126.287C121.543 124.136 122.743 119.229 121.581 117.653C120.419 116.077 119.376 116.851 117.486 117.724Z" fill="#263238"/>
<path d="M108.575 119.811C107.821 125.115 107.143 128.168 108.945 131.448C111.658 136.375 117.844 135.431 119.986 130.49C121.901 126.052 122.818 118.121 118.704 114.898C115.778 112.576 111.734 113.379 109.68 116.687C109.102 117.617 108.726 118.689 108.575 119.811Z" fill="#EBB376"/>
<path d="M115.2 122.999C115.119 123.425 115.251 123.823 115.495 123.88C115.74 123.944 116.004 123.653 116.092 123.227C116.174 122.801 116.048 122.41 115.803 122.339C115.558 122.268 115.313 122.588 115.2 122.999Z" fill="#263238"/>
<path d="M119.477 124.093C119.395 124.519 119.527 124.917 119.772 124.974C120.017 125.037 120.287 124.746 120.375 124.313C120.463 123.88 120.325 123.49 120.08 123.433C119.835 123.376 119.565 123.667 119.477 124.093Z" fill="#263238"/>
<path d="M118.127 125.89C118.127 125.89 119.144 127.182 119.119 128.041C119.1 128.786 117.241 127.963 117.241 127.963C117.241 127.963 118.541 128.289 118.755 127.942C119.031 127.494 118.121 125.89 118.121 125.89H118.127Z" fill="#D58745"/>
<path d="M114.334 121.182C114.283 121.182 114.233 121.153 114.202 121.111C114.12 121.004 114.133 120.841 114.227 120.749C114.773 120.195 115.521 119.982 116.23 120.173C116.349 120.209 116.419 120.344 116.387 120.472V120.486C116.349 120.621 116.224 120.692 116.105 120.656C115.539 120.514 114.955 120.692 114.528 121.132C114.472 121.175 114.409 121.196 114.34 121.175L114.334 121.182Z" fill="#263238"/>
<path d="M121.75 122.957C121.662 122.935 121.6 122.857 121.574 122.765C121.461 122.126 121.078 121.586 120.557 121.316C120.438 121.267 120.381 121.118 120.419 120.99C120.463 120.862 120.588 120.791 120.708 120.834C121.38 121.167 121.863 121.842 122.014 122.651C122.045 122.786 121.97 122.921 121.851 122.957C121.819 122.964 121.788 122.964 121.75 122.957Z" fill="#263238"/>
<path d="M111.338 115.651C113.335 117.036 112.544 119.606 108.311 123.767C106.427 121.239 105.937 116.177 107.306 114.842C108.682 113.507 109.592 114.451 111.338 115.658V115.651Z" fill="#263238"/>
<path d="M105.542 123.439C105.611 124.788 106.151 126.052 107.043 126.954C108.236 128.132 109.511 127.11 109.749 125.442C109.963 123.936 109.599 121.501 108.135 120.969C106.666 120.436 105.46 121.785 105.542 123.439Z" fill="#EBB376"/>
<path d="M107.658 114.543C107.658 114.543 107.237 112.47 110.54 110.496C113.844 108.523 119.188 110.191 122.661 113.031C126.134 115.871 121.907 119.442 120.218 119.521L120.689 118.86C120.689 118.86 117.75 119.08 115.389 117.838L116.463 117.44C116.463 117.44 109.743 116.049 107.652 114.543H107.658Z" fill="#263238"/>
<path d="M116.456 129.112C116.079 129.673 115.602 130.781 115.602 130.781C115.508 130.752 115.407 130.717 115.313 130.681C114.013 130.22 113.542 129.524 113.417 128.892C113.348 128.544 113.385 128.211 113.448 127.955C113.517 127.657 113.624 127.458 113.624 127.458C114.183 128.168 115.37 128.701 116.01 128.956C116.28 129.063 116.45 129.119 116.45 129.119L116.456 129.112Z" fill="#263238"/>
<path d="M116.016 128.949L115.753 129.432C114.528 128.999 113.718 128.502 113.454 127.948C113.523 127.65 113.63 127.451 113.63 127.451C114.189 128.161 115.376 128.694 116.016 128.949Z" fill="white"/>
<path d="M115.313 130.682C114.013 130.22 113.542 129.524 113.417 128.893C113.856 129.07 114.365 129.333 114.773 129.723C115.087 130.021 115.238 130.362 115.313 130.682Z" fill="#A24E3F"/>
<path d="M96.8251 133.841C103.834 134.842 105.328 148.496 108.424 150.583C111.52 152.67 121.606 141.275 121.606 141.275L124.193 145.507C124.193 145.507 113.354 157.761 107.275 157.924C101.202 158.088 95.0353 144.924 93.7542 141.367C92.4731 137.81 93.8295 133.415 96.8251 133.841Z" fill="url(#paint2_linear_502_70246)"/>
<path opacity="0.2" d="M96.825 133.841C103.746 136.085 105.328 148.496 108.424 150.583C111.52 152.671 121.606 141.275 121.606 141.275L124.193 145.507C124.193 145.507 113.354 157.761 107.275 157.925C101.202 158.088 95.0352 144.924 93.7541 141.367C92.4729 137.81 93.9236 132.904 96.825 133.841Z" fill="url(#paint3_linear_502_70246)"/>
<path d="M90.8776 163.193C90.8776 163.193 95.7446 167.311 97.4904 176.584C99.2362 185.849 105.786 206.347 90.8776 198.253L91.2606 196.336C91.2606 196.336 96.0146 200.923 97.7542 197.834C99.4874 194.746 98.5894 178.174 91.5872 169.37L90.8776 163.193Z" fill="#9FC4B3"/>
<path d="M80.8358 159.359C80.8358 159.359 82.6068 155.333 85.213 155.241C87.8192 155.149 88.7298 155.987 88.5665 158.891L87.3921 158.983C87.3921 158.983 88.5791 156.555 85.7468 156.455C82.9145 156.356 82.1044 159.359 82.1044 159.359H80.8358Z" fill="#9FC4B3"/>
<path d="M66.6242 199.83C66.6242 199.83 64.332 183.791 70.298 178.927C70.298 178.927 69.3497 175.562 74.1539 164.5C76.1447 159.913 77.834 158.65 79.517 158.571L91.1476 158.025C92.3722 157.968 93.4335 158.969 93.5968 160.346C94.4132 167.205 96.3851 187.085 93.6533 199.83H66.6305H66.6242Z" fill="#9FC4B3"/>
<path opacity="0.1" d="M66.6242 199.83C66.6242 199.83 64.332 183.791 70.298 178.927C70.298 178.927 69.3497 175.562 74.1539 164.5C76.1447 159.913 77.834 158.65 79.517 158.571L91.1476 158.025C92.3722 157.968 93.4335 158.969 93.5968 160.346C94.4132 167.205 96.3851 187.085 93.6533 199.83H66.6305H66.6242Z" fill="white"/>
<path d="M85.3072 175.561C86.4565 175.611 87.3545 174.411 87.0908 173.147C86.5507 170.534 85.0435 166.714 80.8359 166.004C76.3268 165.245 73.4694 169.852 72.1444 172.749C71.6734 173.786 72.3139 175.021 73.3501 175.064L85.3072 175.561Z" fill="#9FC4B3"/>
<path d="M68.5208 182.952C68.8159 181.802 83.844 182.484 84.8362 182.952C85.8284 183.421 84.629 195.214 83.7372 196.343C82.8454 197.465 68.1879 196.719 67.0701 196.343C65.9522 195.967 66.1155 192.409 68.5208 182.952Z" fill="#9FC4B3"/>
<path opacity="0.2" d="M85.3072 175.561C86.4565 175.611 87.3545 174.411 87.0908 173.147C86.5507 170.534 85.0435 166.714 80.8359 166.004C76.3268 165.245 73.4694 169.852 72.1444 172.749C71.6734 173.786 72.3139 175.021 73.3501 175.064L85.3072 175.561Z" fill="white"/>
<path opacity="0.2" d="M68.5208 182.952C68.8159 181.802 83.844 182.484 84.8362 182.952C85.8284 183.421 84.629 195.214 83.7372 196.343C82.8454 197.465 68.1879 196.719 67.0701 196.343C65.9522 195.967 66.1155 192.409 68.5208 182.952Z" fill="white"/>
<path d="M92.6171 187.233C92.6171 187.233 92.592 187.233 92.5732 187.233C92.4036 187.205 92.278 187.028 92.3031 186.836C93.107 179.999 91.8321 163.356 91.5621 162.156C91.3046 160.978 90.6452 160.346 89.6153 160.268C88.3216 160.175 77.9784 160.268 77.878 160.268C77.7084 160.268 77.564 160.111 77.564 159.913C77.564 159.714 77.7021 159.558 77.878 159.558C78.305 159.558 88.3467 159.465 89.6655 159.558C90.9655 159.65 91.8572 160.509 92.1838 161.979C92.435 163.108 93.7852 179.729 92.9374 186.921C92.9186 187.099 92.7804 187.226 92.6234 187.226L92.6171 187.233Z" fill="#9FC4B3"/>
<path d="M83.128 185.551C83.128 185.551 83.0841 185.551 83.0652 185.551C79.448 184.727 69.0294 185.174 68.929 185.181C68.7657 185.181 68.6087 185.039 68.6024 184.841C68.5961 184.642 68.728 184.478 68.9038 184.471C69.3372 184.45 79.5045 184.01 83.1908 184.855C83.3604 184.89 83.4734 185.082 83.4358 185.274C83.4044 185.444 83.2725 185.558 83.128 185.558V185.551Z" fill="#9FC4B3"/>
<path d="M86.0796 173.005C85.9478 173.005 85.8221 172.913 85.7782 172.757C85.0874 170.357 83.3667 166.395 79.5861 166.729C75.7114 167.084 74.0472 171.848 74.0346 171.891C73.9718 172.075 73.7897 172.167 73.6264 172.096C73.4631 172.025 73.3815 171.82 73.4443 171.635C73.5196 171.422 75.2655 166.402 79.5359 166.019C83.7498 165.621 85.6337 169.938 86.3748 172.537C86.4313 172.721 86.3371 172.92 86.1738 172.984C86.1424 172.998 86.111 172.998 86.0796 172.998V173.005Z" fill="#9FC4B3"/>
<defs>
<linearGradient id="paint0_linear_502_70246" x1="118.296" y1="149.809" x2="130.637" y2="149.809" gradientUnits="userSpaceOnUse">
<stop stop-color="#517CBC"/>
<stop offset="1" stop-color="#B1C6F1"/>
</linearGradient>
<linearGradient id="paint1_linear_502_70246" x1="87.135" y1="158.265" x2="121.38" y2="158.265" gradientUnits="userSpaceOnUse">
<stop stop-color="#517CBC"/>
<stop offset="1" stop-color="#B1C6F1"/>
</linearGradient>
<linearGradient id="paint2_linear_502_70246" x1="93.2769" y1="145.869" x2="124.2" y2="145.869" gradientUnits="userSpaceOnUse">
<stop stop-color="#517CBC"/>
<stop offset="1" stop-color="#B1C6F1"/>
</linearGradient>
<linearGradient id="paint3_linear_502_70246" x1="93.2893" y1="145.826" x2="124.199" y2="145.826" gradientUnits="userSpaceOnUse">
<stop stop-color="#517CBC"/>
<stop offset="1" stop-color="#B1C6F1"/>
</linearGradient>
</defs>
</svg>
