<svg width="36" height="36" viewBox="0 0 36 36" fill="none" xmlns="http://www.w3.org/2000/svg">
<path d="M7.68067 0.5H28.3193C32.2851 0.5 35.5 3.7149 35.5 7.68068V28.3193C35.5 32.2851 32.2851 35.5 28.3193 35.5H7.68067C3.7149 35.5 0.5 32.2851 0.5 28.3193V7.68068C0.5 3.7149 3.7149 0.5 7.68067 0.5Z" fill="url(#paint0_linear_781_5583)" stroke="url(#paint1_linear_781_5583)"/>
<path d="M14.5711 7.08179C14.5711 7.1479 14.5712 7.21402 14.5673 7.28013C14.5362 7.89459 14.3689 8.39237 14.1473 8.54404C14.1006 8.57904 14.0539 8.5946 14.0033 8.5946C13.9333 8.5946 13.8672 8.5596 13.805 8.50127C13.5911 8.28738 13.4355 7.73125 13.4355 7.08568C13.4355 6.89513 13.4473 6.71234 13.4745 6.54511C13.5328 6.14066 13.6533 5.81788 13.8089 5.66621C13.8478 5.62732 13.8867 5.60012 13.9295 5.58845C13.9528 5.57678 13.98 5.49512 14.0072 5.49512C14.3222 5.49512 14.575 6.25345 14.575 7.08568L14.5711 7.08179Z" fill="#003826"/>
<path d="M16.1855 18.391H16.1816C16.1816 18.391 16.1738 18.3794 16.166 18.3755C16.1738 18.3794 16.1777 18.3871 16.1855 18.391Z" fill="url(#paint2_linear_781_5583)"/>
<path d="M16.2012 18.4062C16.2012 18.4062 16.2129 18.414 16.2206 18.4218C16.2323 18.4296 16.2206 18.4218 16.2012 18.4062Z" fill="url(#paint3_linear_781_5583)"/>
<path d="M18.044 10.7803C17.869 10.8075 17.694 10.8386 17.5228 10.8775L17.5657 11.0564C17.6746 11.5075 17.2662 11.9159 16.8034 11.8148L15.6834 11.562C15.1545 11.8692 14.3184 12.4487 14.3184 12.4487C14.3184 12.4487 17.2934 12.2464 18.6895 12.7559C20.0896 13.2615 21.3301 14.292 21.8007 15.5909C22.1546 16.5632 22.0146 17.6793 21.3845 18.4804C20.9645 19.0132 19.7629 20.0982 18.919 19.756C18.9657 19.7755 19.0162 19.7949 19.0629 19.8143C19.0979 19.8299 19.1368 19.8416 19.1718 19.8571C19.1834 19.861 19.1951 19.8649 19.2068 19.8688C19.2457 19.8804 19.2846 19.896 19.3196 19.9077C19.3196 19.9077 19.3235 19.9077 19.3274 19.9077C19.3468 19.9155 19.3701 19.9232 19.3896 19.9271C19.4207 19.9388 19.4557 19.9465 19.4868 19.9582C19.5257 19.9699 19.5646 19.9816 19.6035 19.9932C19.6501 20.0088 19.6968 20.0204 19.7434 20.0321C19.7784 20.0399 19.8095 20.0477 19.8445 20.0554C19.8795 20.0632 19.9107 20.071 19.9457 20.0788C20.0351 20.0982 20.1284 20.1177 20.2179 20.1332C20.2567 20.141 20.2996 20.1449 20.3384 20.1527C21.5907 20.246 22.8585 19.7793 23.6791 18.8032C23.7996 18.6593 23.9085 18.5077 24.0018 18.3521C24.2546 17.7454 24.4141 17.1232 24.4685 16.5048C24.7719 13.2304 21.7152 10.2475 18.0401 10.7803H18.044Z" fill="url(#paint4_linear_781_5583)"/>
<path d="M21.3336 20.7825C20.8591 20.8681 20.3691 20.8875 19.8752 20.8447C18.8602 20.7553 17.8296 20.3936 16.9313 19.748C16.8613 19.6975 16.7913 19.6469 16.7251 19.5925C16.7251 19.5925 16.7251 19.5925 16.7213 19.5925C16.659 19.5264 16.5697 19.468 16.4997 19.4058C16.4258 19.3397 16.3518 19.2775 16.2818 19.2075C15.9396 18.8769 15.6402 18.5075 15.4029 18.1069L15.1152 17.508C15.0024 17.2396 14.9285 16.9558 14.8935 16.6719C14.874 16.9013 14.8662 17.1347 14.8701 17.3719C14.8973 19.2347 15.5974 20.8719 16.663 21.8908C17.3085 21.8831 17.9929 21.8442 18.6696 21.7547C19.463 21.6497 20.2486 21.4786 20.9408 21.2064C21.3686 21.0392 21.7653 20.833 22.1075 20.5803C21.8586 20.6658 21.598 20.7358 21.3297 20.7825H21.3336Z" fill="url(#paint5_linear_781_5583)"/>
<path d="M22.7769 19.4526C22.7769 19.4526 24.6436 16.4115 22.1975 13.5026C20 11.0002 17.5 11.5002 17.5 11.5002" stroke="white" stroke-width="0.2" stroke-miterlimit="10" stroke-linecap="round" stroke-dasharray="2 1"/>
<path d="M16.6631 21.8948C15.7297 21.9065 14.882 21.8559 14.2559 21.8015C14.1081 21.7898 13.9758 21.7742 13.8553 21.7626C13.8514 21.7626 13.8436 21.7626 13.8397 21.7626C13.5558 21.7315 13.303 21.5876 13.1436 21.3776C13.0813 21.2959 13.0347 21.2026 13.0036 21.1053C12.8208 20.5103 12.5564 19.5109 12.4242 18.3831C12.4125 18.3053 12.3619 17.9397 12.3541 17.7609C12.3074 16.8314 12.3541 15.8942 12.5914 14.9958C12.6925 14.6069 12.8363 14.218 13.1241 13.9225C13.373 13.6658 13.7114 13.5024 14.0614 13.3819C14.7147 13.1602 15.4419 13.098 16.1303 13.2225C16.383 13.2691 16.632 13.3391 16.8692 13.4363C16.212 13.7125 15.6597 14.183 15.302 14.7586C15.1892 14.9414 15.0959 15.1358 15.0259 15.338C14.9053 15.688 14.8508 16.0536 14.8663 16.4231C14.8663 16.5047 14.878 16.5903 14.8858 16.672C14.8664 16.9014 14.8586 17.1347 14.8625 17.372C14.8897 19.2348 15.5897 20.872 16.6553 21.8909L16.6631 21.8948Z" fill="#5AB38B"/>
<path d="M15.252 18.9902C17.7292 22.0975 20.6693 21.0942 20.6693 21.0942" stroke="white" stroke-width="0.2" stroke-miterlimit="10" stroke-linecap="round" stroke-dasharray="2 1"/>
<path d="M19.4899 14.9727C18.7276 14.4205 17.6309 14.5527 17.0398 15.2644C16.4487 15.9761 16.5887 17.0028 17.3509 17.555C18.1132 18.1072 19.2099 17.975 19.801 17.2633C20.3921 16.5516 20.2521 15.525 19.4899 14.9727ZM18.9843 15.9605L18.436 16.6489C18.4126 16.6761 18.3776 16.6955 18.3426 16.6955C18.3076 16.6955 18.2726 16.68 18.2493 16.6528L18.0004 16.3611C17.9537 16.3066 17.9615 16.2289 18.012 16.1783C18.0626 16.1316 18.1404 16.1355 18.187 16.19C18.2726 16.2911 18.4087 16.2872 18.4904 16.19L18.7976 15.7972C18.8404 15.7428 18.9182 15.735 18.9726 15.7816C19.027 15.8283 19.0309 15.91 18.9882 15.9605H18.9843Z" fill="url(#paint6_linear_781_5583)"/>
<path d="M10.3476 31.4893L10.3438 31.4932" stroke="#3AB44B" stroke-width="0.21" stroke-miterlimit="10"/>
<path d="M20.6053 25.2318C20.6053 25.2318 20.5937 25.2084 20.5898 25.1968C20.5937 25.1968 20.5975 25.1968 20.6014 25.2007C20.6014 25.2084 20.6014 25.2201 20.6053 25.2318Z" fill="#2E3084"/>
<path d="M23.5772 20.4518C21.6793 22.4157 15.8032 22.6724 13.287 22.6879C12.6298 22.6918 12.0581 22.2096 11.9959 21.599C11.7625 19.2579 11.4436 13.7628 13.3414 11.7989C13.5553 11.5772 13.7848 11.375 14.0259 11.1883L13.4153 11.0522C12.9253 10.9433 12.7504 10.3444 13.1081 9.99441L14.8931 9.18163L15.6943 7.45883C16.0481 7.11271 16.647 7.27992 16.7637 7.75826L17.2771 9.88163C19.2099 9.6483 21.2749 10.1966 22.8732 11.55C25.7005 13.9378 26.0116 17.924 23.5733 20.4479L23.5772 20.4518ZM28.73 20.5179C29.22 19.3318 29.4844 18.0446 29.4844 16.6951C29.4844 10.9822 24.6038 6.28825 18.6149 6.24158C12.7387 6.19491 7.91631 10.5622 7.57798 16.0767C7.5702 16.2051 7.56639 16.3334 7.5625 16.4617C7.57417 16.7767 7.58187 17.3445 7.58187 18.0368C7.58187 18.134 7.58187 18.2312 7.58187 18.3323V19.3046C7.58187 19.5418 7.58187 19.7868 7.58187 20.0318C7.58187 20.1057 7.58186 26.118 7.57798 26.1919V27.1914H18.261C18.9688 27.1136 19.6104 27.0397 20.1821 26.958C20.8277 26.8686 21.3954 26.7675 21.8932 26.6352C21.9554 26.6197 22.0176 26.6002 22.0799 26.5847C22.2238 26.5458 22.3599 26.4991 22.4921 26.4524C22.5971 26.4136 22.706 26.3708 22.8188 26.3241C22.8383 26.3164 22.8616 26.3047 22.881 26.2969C24.2149 25.7175 26.0427 24.4963 27.1355 23.1741C27.7383 22.4468 28.24 21.6418 28.625 20.7746C28.6561 20.7046 28.6833 20.6385 28.7144 20.5685L28.6367 20.6151H28.6289C28.6483 20.5762 28.6638 20.5335 28.6833 20.4868C28.6989 20.4985 28.7183 20.5101 28.7378 20.5218L28.73 20.5179Z" fill="url(#paint7_linear_781_5583)"/>
<path d="M16.7372 11.5268L13.6766 10.8929C13.2333 10.7996 13.0777 10.3018 13.4005 10.0141L14.2561 9.65626C13.486 9.18181 12.9805 8.38848 12.9805 7.48235C12.9805 6.68512 13.3732 5.96955 13.9954 5.49121C13.8671 5.78677 13.7971 6.10954 13.7971 6.44788C13.7971 7.43956 14.4116 8.30681 15.3138 8.75015L15.7416 7.90234C16.0605 7.61456 16.6049 7.75457 16.7099 8.15124L16.9511 9.06127L17.1572 9.85071L17.4333 10.8929C17.5305 11.2702 17.1611 11.6085 16.7449 11.523L16.7372 11.5268Z" fill="#5AB38B"/>
<path d="M15.5109 6.09426C15.8674 6.09426 16.1564 5.82439 16.1564 5.49148C16.1564 5.15857 15.8674 4.88867 15.5109 4.88867C15.1543 4.88867 14.8652 5.15857 14.8652 5.49148C14.8652 5.82439 15.1543 6.09426 15.5109 6.09426Z" fill="#5AB38B"/>
<defs>
<linearGradient id="paint0_linear_781_5583" x1="-16" y1="31" x2="36" y2="17.9981" gradientUnits="userSpaceOnUse">
<stop stop-color="#8BC0B7"/>
<stop offset="0.201394" stop-color="#9CC8C4"/>
<stop offset="0.34" stop-color="#B4D1D7"/>
<stop offset="0.388943" stop-color="#B9D4D8"/>
<stop offset="0.45" stop-color="#BDD9D9"/>
<stop offset="0.59" stop-color="#B7D1DD"/>
<stop offset="1" stop-color="#ACC5E7"/>
</linearGradient>
<linearGradient id="paint1_linear_781_5583" x1="18.8229" y1="-3.375" x2="21.8856" y2="41.9877" gradientUnits="userSpaceOnUse">
<stop stop-color="#2576B9"/>
<stop offset="0.985024" stop-color="#592FAA"/>
</linearGradient>
<linearGradient id="paint2_linear_781_5583" x1="16.2132" y1="18.3639" x2="16.2348" y2="18.3806" gradientUnits="userSpaceOnUse">
<stop stop-color="#337DBF"/>
<stop offset="1" stop-color="#ACC5E7"/>
</linearGradient>
<linearGradient id="paint3_linear_781_5583" x1="16.2472" y1="18.3897" x2="16.2718" y2="18.4088" gradientUnits="userSpaceOnUse">
<stop stop-color="#337DBF"/>
<stop offset="1" stop-color="#ACC5E7"/>
</linearGradient>
<linearGradient id="paint4_linear_781_5583" x1="19.6363" y1="9.83269" x2="20.3832" y2="21.7429" gradientUnits="userSpaceOnUse">
<stop stop-color="#2576B9"/>
<stop offset="0.985024" stop-color="#592FAA"/>
</linearGradient>
<linearGradient id="paint5_linear_781_5583" x1="18.6538" y1="16.1826" x2="18.9746" y2="22.7732" gradientUnits="userSpaceOnUse">
<stop stop-color="#2576B9"/>
<stop offset="0.985024" stop-color="#592FAA"/>
</linearGradient>
<linearGradient id="paint6_linear_781_5583" x1="16.6743" y1="16.26" x2="20.1665" y2="16.26" gradientUnits="userSpaceOnUse">
<stop stop-color="#337DBF"/>
<stop offset="0.01" stop-color="#337BBE"/>
<stop offset="0.45" stop-color="#3C54A5"/>
<stop offset="0.79" stop-color="#423B95"/>
<stop offset="1" stop-color="#453390"/>
</linearGradient>
<linearGradient id="paint7_linear_781_5583" x1="19.0245" y1="4.27713" x2="20.7285" y2="30.6863" gradientUnits="userSpaceOnUse">
<stop stop-color="#2576B9"/>
<stop offset="0.985024" stop-color="#592FAA"/>
</linearGradient>
</defs>
</svg>
