<svg width="14" height="14" viewBox="0 0 14 14" fill="none" xmlns="http://www.w3.org/2000/svg">
<path d="M11.8792 4.98841L11.1617 6.06758C11.5078 6.75771 11.6772 7.5229 11.6548 8.29459C11.6324 9.06627 11.4189 9.82035 11.0334 10.4892H2.9484C2.44742 9.62014 2.23983 8.61273 2.3564 7.61637C2.47298 6.62001 2.90752 5.68773 3.5956 4.95775C4.28368 4.22776 5.18868 3.73894 6.17642 3.56374C7.16416 3.38853 8.18207 3.53628 9.07924 3.98508L10.1584 3.26758C9.05969 2.56304 7.75643 2.24733 6.45709 2.37096C5.15775 2.49459 3.93741 3.0504 2.99128 3.9495C2.04514 4.8486 1.42787 6.03904 1.2382 7.33039C1.04853 8.62174 1.29743 9.93939 1.94507 11.0726C2.04687 11.2489 2.19304 11.3955 2.36906 11.4979C2.54507 11.6002 2.74481 11.6547 2.9484 11.6559H11.0276C11.2331 11.6567 11.4353 11.6032 11.6135 11.5008C11.7918 11.3983 11.9398 11.2506 12.0426 11.0726C12.58 10.1415 12.8498 9.08007 12.822 8.00539C12.7942 6.9307 12.4699 5.8846 11.8851 4.98258L11.8792 4.98841Z" fill="#519374"/>
<path d="M6.1684 8.97841C6.27676 9.08689 6.40543 9.17294 6.54706 9.23165C6.68869 9.29036 6.8405 9.32058 6.99382 9.32058C7.14714 9.32058 7.29895 9.29036 7.44059 9.23165C7.58222 9.17294 7.71089 9.08689 7.81924 8.97841L11.1209 4.02591L6.1684 7.32758C6.05993 7.43593 5.97388 7.5646 5.91517 7.70623C5.85646 7.84786 5.82624 7.99968 5.82624 8.153C5.82624 8.30632 5.85646 8.45813 5.91517 8.59976C5.97388 8.74139 6.05993 8.87006 6.1684 8.97841Z" fill="#519374"/>
</svg>
