<svg width="14" height="14" viewBox="0 0 14 14" fill="none" xmlns="http://www.w3.org/2000/svg">
<path d="M11.8792 4.98808L11.1617 6.06725C11.5078 6.75737 11.6772 7.52256 11.6548 8.29425C11.6324 9.06594 11.4189 9.82002 11.0334 10.4889H2.9484C2.44742 9.61981 2.23983 8.6124 2.3564 7.61603C2.47298 6.61967 2.90752 5.68739 3.5956 4.95741C4.28368 4.22743 5.18868 3.7386 6.17642 3.5634C7.16416 3.3882 8.18207 3.53595 9.07924 3.98474L10.1584 3.26724C9.05969 2.5627 7.75643 2.247 6.45709 2.37062C5.15775 2.49425 3.93741 3.05007 2.99128 3.94917C2.04514 4.84827 1.42787 6.0387 1.2382 7.33005C1.04853 8.6214 1.29743 9.93906 1.94507 11.0722C2.04687 11.2486 2.19304 11.3952 2.36906 11.4975C2.54507 11.5999 2.74481 11.6543 2.9484 11.6556H11.0276C11.2331 11.6564 11.4353 11.6029 11.6135 11.5004C11.7918 11.398 11.9398 11.2503 12.0426 11.0722C12.58 10.1412 12.8498 9.07974 12.822 8.00505C12.7942 6.93037 12.4699 5.88426 11.8851 4.98225L11.8792 4.98808Z" fill="url(#paint0_linear_96_4605)"/>
<path d="M6.1684 8.97808C6.27676 9.08655 6.40543 9.1726 6.54706 9.23131C6.68869 9.29003 6.8405 9.32025 6.99382 9.32025C7.14714 9.32025 7.29895 9.29003 7.44059 9.23131C7.58222 9.1726 7.71089 9.08655 7.81924 8.97808L11.1209 4.02558L6.1684 7.32725C6.05993 7.4356 5.97388 7.56427 5.91517 7.7059C5.85646 7.84753 5.82624 7.99934 5.82624 8.15266C5.82624 8.30598 5.85646 8.45779 5.91517 8.59943C5.97388 8.74106 6.05993 8.86973 6.1684 8.97808Z" fill="url(#paint1_linear_96_4605)"/>
<defs>
<linearGradient id="paint0_linear_96_4605" x1="7.0001" y1="2.34439" x2="7.0001" y2="17.4751" gradientUnits="userSpaceOnUse">
<stop stop-color="#317DC1"/>
<stop offset="1" stop-color="#ABC8F4"/>
</linearGradient>
<linearGradient id="paint1_linear_96_4605" x1="7.0001" y1="2.34439" x2="7.0001" y2="17.4751" gradientUnits="userSpaceOnUse">
<stop stop-color="#317DC1"/>
<stop offset="1" stop-color="#ABC8F4"/>
</linearGradient>
</defs>
</svg>
